<svg width="725" height="553" viewBox="0 0 725 553" fill="none" xmlns="http://www.w3.org/2000/svg">
<path d="M297.668 546H310.301V542.609H301.77V526.203H297.668V546ZM319.543 546.301C324.041 546.287 326.83 543.211 326.844 538.617C326.83 534.037 324.041 530.961 319.543 530.961C315.059 530.961 312.256 534.037 312.27 538.617C312.256 543.211 315.059 546.287 319.543 546.301ZM316.371 538.617C316.371 536.006 317.451 534.051 319.57 534.051C321.635 534.051 322.729 536.006 322.715 538.617C322.729 541.215 321.635 543.143 319.57 543.156C317.451 543.143 316.371 541.215 316.371 538.617ZM328.676 541.844C328.689 544.783 330.781 546.287 333.625 546.273C335.826 546.287 337.248 545.316 337.973 543.949H338.082V546H341.91V535.992C341.924 532.41 338.861 530.961 335.621 530.961C331.684 530.961 329.441 532.984 329.195 535.555H333.051C333.27 534.543 334.131 533.928 335.512 533.914C337.029 533.928 337.877 534.639 337.891 535.883V537.086C337.262 537.113 335.266 537.209 334.199 537.277C331.342 537.455 328.689 538.535 328.676 541.844ZM332.559 541.734C332.559 540.586 333.447 539.916 334.855 539.793C335.539 539.738 337.275 539.643 337.891 539.615V540.695C337.904 542.268 336.619 543.471 334.773 543.484C333.475 543.471 332.559 542.869 332.559 541.734ZM350.469 546.246C352.889 546.246 354.119 544.852 354.68 543.621H354.871V546H358.863V526.203H354.816V533.641H354.68C354.146 532.438 352.957 530.961 350.469 530.961C347.188 530.961 344.426 533.504 344.426 538.59C344.426 543.553 347.078 546.246 350.469 546.246ZM348.582 538.562C348.568 535.979 349.662 534.188 351.727 534.188C353.764 534.188 354.898 535.896 354.898 538.562C354.898 541.242 353.75 543.006 351.727 543.02C349.676 543.006 348.568 541.188 348.582 538.562ZM362.117 546H366.164V531.152H362.117V546ZM361.926 527.16C361.926 528.281 362.924 529.211 364.141 529.211C365.344 529.211 366.342 528.281 366.328 527.16C366.342 526.012 365.344 525.096 364.141 525.082C362.924 525.096 361.926 526.012 361.926 527.16ZM373.355 537.414C373.355 535.459 374.518 534.324 376.199 534.324C377.881 534.324 378.865 535.418 378.879 537.25V546H382.898V536.539C382.912 533.08 380.889 530.961 377.785 530.961C375.584 530.961 373.998 532.041 373.328 533.75H373.164V531.152H369.309V546H373.355V537.414ZM392.715 551.879C396.939 551.879 399.92 549.951 399.934 546.164V531.152H395.914V533.641H395.75C395.203 532.438 394 530.961 391.512 530.961C388.23 530.961 385.469 533.463 385.469 538.48C385.469 543.43 388.162 545.795 391.512 545.781C393.904 545.795 395.217 544.578 395.75 543.375H395.941V546.082C395.928 548.146 394.67 548.953 392.797 548.953C391.184 548.953 390.062 548.42 389.844 547.23H385.852C386.084 550.033 388.613 551.879 392.715 551.879ZM389.625 538.535C389.611 535.979 390.705 534.188 392.77 534.188C394.807 534.188 395.941 535.896 395.941 538.535C395.941 541.174 394.793 542.732 392.77 542.746C390.719 542.732 389.611 541.105 389.625 538.535ZM405.457 546.246C406.674 546.246 407.727 545.221 407.727 543.949C407.727 542.691 406.674 541.666 405.457 541.68C404.172 541.666 403.133 542.691 403.16 543.949C403.133 545.221 404.172 546.246 405.457 546.246ZM413.359 546.246C414.576 546.246 415.629 545.221 415.629 543.949C415.629 542.691 414.576 541.666 413.359 541.68C412.074 541.666 411.035 542.691 411.062 543.949C411.035 545.221 412.074 546.246 413.359 546.246ZM421.262 546.246C422.479 546.246 423.531 545.221 423.531 543.949C423.531 542.691 422.479 541.666 421.262 541.68C419.977 541.666 418.938 542.691 418.965 543.949C418.938 545.221 419.977 546.246 421.262 546.246Z" fill="black"/>
<path d="M264.346 27.2015C264.345 30.4913 265.064 33.7124 266.422 36.6511C267.518 39.0247 265.973 42.2932 263.356 42.2932L211.484 42.2932C209.815 42.2932 208.463 43.6446 208.463 45.3116L208.463 97.1602C208.463 99.7719 205.2 101.315 202.827 100.22C200.937 99.3473 198.926 98.7347 196.848 98.4078C192.524 97.7277 188.095 98.3141 184.097 100.096C180.099 101.877 176.704 104.778 174.321 108.447C171.938 112.116 170.67 116.396 170.67 120.77C170.67 125.144 171.938 129.424 174.321 133.093C176.704 136.762 180.099 139.663 184.097 141.445C188.095 143.226 192.524 143.812 196.848 143.132C198.926 142.806 200.937 142.193 202.827 141.32C205.2 140.225 208.463 141.768 208.463 144.38L208.463 196.229C208.463 197.896 209.815 199.247 211.484 199.247L263.373 199.247C265.986 199.247 267.531 195.986 266.435 193.616C265.561 191.727 264.948 189.717 264.621 187.641C263.941 183.32 264.527 178.895 266.31 174.9C268.093 170.906 270.996 167.513 274.668 165.132C278.34 162.751 282.624 161.484 287.001 161.484C291.378 161.484 295.662 162.751 299.334 165.132C303.006 167.513 305.909 170.906 307.692 174.9C309.475 178.895 310.061 183.32 309.381 187.641C309.054 189.717 308.441 191.727 307.567 193.616C306.471 195.986 308.016 199.247 310.629 199.247L362.518 199.247C364.187 199.247 365.539 197.896 365.539 196.229L365.539 144.38C365.539 141.768 368.802 140.225 371.175 141.32C373.065 142.193 375.076 142.806 377.154 143.132C381.478 143.812 385.907 143.226 389.905 141.445C393.903 139.663 397.298 136.762 399.681 133.093C402.064 129.424 403.332 125.144 403.332 120.77C403.332 116.396 402.064 112.116 399.681 108.447C397.298 104.778 393.903 101.877 389.905 100.096C385.907 98.3141 381.478 97.7277 377.154 98.4078C375.076 98.7347 373.065 99.3472 371.175 100.22C368.802 101.315 365.539 99.7719 365.539 97.1602L365.539 45.3116C365.539 43.6446 364.187 42.2932 362.518 42.2932L310.629 42.2932C308.016 42.2932 306.471 39.0327 307.567 36.6618C308.153 35.3953 308.622 34.0731 308.966 32.711C309.866 29.1499 309.886 25.4235 309.023 21.8533C308.16 18.2831 306.441 14.9762 304.014 12.2181C301.586 9.46005 298.524 7.33355 295.09 6.0221C291.657 4.71065 287.956 4.25363 284.306 4.69052C280.656 5.12741 277.168 6.44503 274.142 8.52977C271.115 10.6145 268.642 13.4037 266.936 16.6567C265.229 19.9097 264.34 23.5287 264.346 27.2015Z" fill="#D6147C"/>
<path fill-rule="evenodd" clip-rule="evenodd" d="M170.52 135.556C167.661 131.153 166.139 126.017 166.139 120.768C166.139 115.519 167.661 110.383 170.52 105.98C173.38 101.577 177.455 98.0966 182.252 95.9587C187.049 93.8208 192.364 93.1171 197.553 93.9333C199.757 94.2799 201.898 94.8945 203.932 95.7557L203.932 45.3095C203.932 41.142 207.313 37.7636 211.484 37.7636L261.961 37.7636C260.556 34.4501 259.815 30.8616 259.815 27.2022C259.809 22.7961 260.876 18.4548 262.923 14.5524C264.971 10.6489 267.939 7.30185 271.57 4.80015C275.202 2.29844 279.388 0.717306 283.767 0.193047C288.147 -0.331234 292.588 0.217203 296.708 1.79092C300.829 3.36466 304.504 5.91649 307.416 9.2262C310.329 12.5359 312.392 16.5041 313.428 20.7884C314.463 25.0726 314.44 29.5443 313.36 33.8176C313.018 35.1692 312.574 36.4881 312.033 37.7636L362.519 37.7636C366.689 37.7636 370.07 41.142 370.07 45.3095L370.07 95.7557C372.104 94.8945 374.246 94.2799 376.45 93.9332C381.639 93.1171 386.953 93.8208 391.751 95.9587C396.548 98.0965 400.623 101.577 403.482 105.98C406.342 110.383 407.863 115.519 407.863 120.768C407.863 126.017 406.342 131.153 403.482 135.556C400.623 139.959 396.548 143.44 391.751 145.578C386.953 147.715 381.639 148.419 376.45 147.603C374.246 147.256 372.104 146.641 370.07 145.78L370.07 196.227C370.07 200.394 366.689 203.772 362.519 203.772L310.63 203.772C307.232 203.772 304.836 201.625 303.683 199.4C302.549 197.21 302.246 194.328 303.454 191.715C304.153 190.204 304.643 188.596 304.905 186.935C305.449 183.478 304.98 179.938 303.554 176.742C302.127 173.547 299.805 170.832 296.868 168.927C293.93 167.023 290.503 166.009 287.001 166.009C283.499 166.009 280.072 167.023 277.135 168.927C274.197 170.832 271.875 173.547 270.449 176.742C269.022 179.938 268.553 183.478 269.098 186.935C269.359 188.596 269.85 190.204 270.548 191.715C271.757 194.328 271.453 197.21 270.319 199.4C269.166 201.625 266.771 203.772 263.373 203.772L211.484 203.772C207.313 203.772 203.932 200.394 203.932 196.227L203.932 145.78C201.898 146.641 199.757 147.256 197.553 147.603C192.364 148.419 187.049 147.715 182.252 145.578C177.455 143.44 173.38 139.959 170.52 135.556ZM259.815 27.2022C259.815 27.2009 259.815 27.1995 259.815 27.1982L264.346 27.1994L259.815 27.2063C259.815 27.2049 259.815 27.2036 259.815 27.2022ZM175.201 120.768C175.201 124.267 176.216 127.691 178.122 130.627C180.028 133.562 182.745 135.882 185.943 137.308C189.141 138.733 192.684 139.202 196.144 138.658C197.806 138.396 199.415 137.906 200.927 137.208C203.543 136.001 206.427 136.304 208.618 137.437C210.845 138.589 212.994 140.983 212.994 144.378L212.994 194.717L261.969 194.717C261.108 192.685 260.493 190.545 260.146 188.343C259.329 183.158 260.033 177.848 262.172 173.054C264.312 168.261 267.796 164.189 272.202 161.332C276.608 158.474 281.748 156.954 287.001 156.954C292.254 156.954 297.394 158.474 301.801 161.332C306.207 164.189 309.691 168.261 311.83 173.054C313.97 177.848 314.674 183.158 313.857 188.343C313.51 190.545 312.895 192.685 312.033 194.717L361.008 194.717L361.008 144.378C361.008 140.983 363.158 138.589 365.384 137.437C367.575 136.304 370.46 136.001 373.076 137.208C374.588 137.906 376.197 138.396 377.859 138.658C381.318 139.202 384.861 138.733 388.059 137.308C391.258 135.882 393.974 133.562 395.88 130.627C397.787 127.691 398.801 124.267 398.801 120.768C398.801 117.269 397.787 113.845 395.88 110.909C393.974 107.974 391.258 105.654 388.059 104.228C384.861 102.803 381.318 102.334 377.859 102.878C376.197 103.14 374.588 103.63 373.076 104.328C370.46 105.535 367.575 105.232 365.384 104.099C363.158 102.947 361.008 100.554 361.008 97.1581L361.008 46.8186L310.63 46.8186C307.232 46.8186 304.836 44.6709 303.683 42.4459C302.549 40.2566 302.246 37.3743 303.454 34.7608C303.923 33.7476 304.298 32.6898 304.574 31.6001C305.294 28.7513 305.309 25.7702 304.619 22.914C303.929 20.0578 302.553 17.4123 300.611 15.2059C298.669 12.9994 296.219 11.2982 293.473 10.2491C290.726 9.1999 287.765 8.83427 284.845 9.18378C281.926 9.5333 279.135 10.5874 276.714 12.2552C274.293 13.9229 272.314 16.1543 270.949 18.7567C269.584 21.3591 268.873 24.2543 268.877 27.1926L268.877 27.2007C268.876 29.8294 269.451 32.4031 270.536 34.7516C271.744 37.3663 271.44 40.2499 270.306 42.4398C269.155 44.6651 266.759 46.8186 263.357 46.8186L212.994 46.8186L212.994 97.1581C212.994 100.554 210.845 102.947 208.618 104.099C206.427 105.232 203.543 105.535 200.927 104.328C199.415 103.63 197.806 103.14 196.144 102.878C192.684 102.334 189.141 102.803 185.943 104.228C182.745 105.654 180.028 107.974 178.122 110.909C176.216 113.845 175.201 117.269 175.201 120.768Z" fill="black"/>
<path d="M368.524 301.334C368.524 298.722 365.261 297.179 362.889 298.274C360.998 299.147 358.987 299.759 356.909 300.086C352.585 300.766 348.156 300.18 344.159 298.398C340.161 296.617 336.765 293.716 334.382 290.047C332 286.378 330.731 282.098 330.731 277.724C330.731 273.35 332 269.07 334.382 265.401C336.765 261.732 340.161 258.831 344.159 257.049C348.156 255.268 352.585 254.682 356.909 255.362C358.987 255.688 360.998 256.301 362.889 257.174C365.261 258.269 368.524 256.726 368.524 254.114V202.265C368.524 200.598 367.172 199.247 365.504 199.247H313.615C311.001 199.247 309.456 195.986 310.553 193.615C311.426 191.727 312.039 189.717 312.366 187.641C313.047 183.32 312.46 178.895 310.677 174.9C308.894 170.906 305.991 167.513 302.319 165.132C298.647 162.751 294.364 161.483 289.986 161.483C285.609 161.483 281.325 162.751 277.653 165.132C273.982 167.513 271.079 170.906 269.296 174.9C267.513 178.895 266.926 183.32 267.607 187.641C267.934 189.717 268.547 191.727 269.42 193.615C270.516 195.986 268.972 199.247 266.358 199.247H214.469C212.801 199.247 211.448 200.598 211.448 202.265V254.114C211.448 256.726 214.711 258.269 217.084 257.174C218.974 256.301 220.985 255.688 223.063 255.362C227.387 254.682 231.816 255.268 235.814 257.049C239.812 258.831 243.207 261.732 245.59 265.401C247.973 269.07 249.241 273.35 249.241 277.724C249.241 282.098 247.973 286.378 245.59 290.047C243.207 293.716 239.812 296.617 235.814 298.398C231.816 300.18 227.387 300.766 223.063 300.086C220.985 299.759 218.974 299.147 217.084 298.274C214.711 297.179 211.448 298.722 211.448 301.334V353.182C211.448 354.849 212.801 356.201 214.469 356.201H266.358C268.972 356.201 270.516 359.461 269.42 361.832C268.547 363.721 267.934 365.73 267.607 367.807C266.926 372.128 267.513 376.553 269.296 380.547C271.079 384.542 273.982 387.935 277.653 390.316C281.325 392.697 285.609 393.964 289.986 393.964C294.364 393.964 298.647 392.697 302.319 390.316C305.991 387.935 308.894 384.542 310.677 380.547C312.46 376.553 313.047 372.128 312.366 367.807C312.039 365.73 311.426 363.721 310.553 361.832C309.456 359.461 311.001 356.201 313.615 356.201H365.504C367.172 356.201 368.524 354.849 368.524 353.182V301.334Z" fill="#42BAAC"/>
<path fill-rule="evenodd" clip-rule="evenodd" d="M275.188 161.334C279.594 158.477 284.735 156.956 289.988 156.956C295.24 156.956 300.381 158.477 304.787 161.334C309.193 164.191 312.677 168.263 314.816 173.056C316.956 177.85 317.66 183.16 316.843 188.345C316.496 190.548 315.881 192.687 315.019 194.72H365.505C369.676 194.72 373.057 198.098 373.057 202.265V254.114C373.057 257.509 370.907 259.903 368.68 261.055C366.49 262.188 363.605 262.491 360.989 261.284C359.477 260.586 357.868 260.096 356.206 259.834C352.747 259.29 349.204 259.759 346.006 261.184C342.807 262.61 340.091 264.93 338.185 267.865C336.278 270.801 335.264 274.225 335.264 277.724C335.264 281.223 336.278 284.647 338.185 287.583C340.091 290.518 342.807 292.838 346.006 294.264C349.204 295.689 352.747 296.158 356.206 295.614C357.868 295.352 359.477 294.862 360.989 294.164C363.605 292.957 366.49 293.26 368.68 294.393C370.907 295.545 373.057 297.939 373.057 301.334V353.183C373.057 357.35 369.676 360.728 365.505 360.728H315.019C315.881 362.761 316.496 364.901 316.843 367.103C317.66 372.288 316.956 377.598 314.816 382.392C312.677 387.185 309.193 391.257 304.787 394.114C300.381 396.971 295.24 398.492 289.988 398.492C284.735 398.492 279.594 396.971 275.188 394.114C270.782 391.257 267.298 387.185 265.159 382.392C263.019 377.598 262.315 372.288 263.132 367.103C263.479 364.901 264.094 362.761 264.956 360.728H214.47C210.299 360.728 206.918 357.35 206.918 353.183V301.334C206.918 297.939 209.068 295.545 211.295 294.393C213.486 293.26 216.37 292.957 218.986 294.164C220.498 294.862 222.107 295.352 223.769 295.614C227.228 296.158 230.771 295.689 233.97 294.264C237.168 292.838 239.884 290.518 241.791 287.583C243.697 284.647 244.711 281.223 244.711 277.724C244.711 274.225 243.697 270.801 241.791 267.865C239.884 264.93 237.168 262.61 233.97 261.184C230.771 259.759 227.228 259.29 223.769 259.834C222.107 260.096 220.498 260.586 218.986 261.284C216.37 262.491 213.486 262.188 211.295 261.055C209.068 259.903 206.918 257.51 206.918 254.114V202.265C206.918 198.098 210.299 194.72 214.47 194.72H264.956C264.094 192.687 263.479 190.548 263.132 188.345C262.315 183.16 263.019 177.85 265.159 173.056C267.298 168.263 270.782 164.191 275.188 161.334ZM289.988 166.011C286.486 166.011 283.059 167.025 280.121 168.93C277.184 170.834 274.861 173.549 273.435 176.745C272.009 179.94 271.539 183.48 272.084 186.937C272.346 188.598 272.836 190.206 273.535 191.717C274.743 194.33 274.44 197.213 273.305 199.402C272.153 201.627 269.757 203.775 266.359 203.775H215.981V252.712C218.014 251.851 220.156 251.236 222.36 250.889C227.549 250.073 232.863 250.777 237.661 252.915C242.458 255.052 246.533 258.533 249.392 262.936C252.252 267.339 253.774 272.475 253.774 277.724C253.774 282.973 252.252 288.109 249.392 292.512C246.533 296.915 242.458 300.396 237.661 302.533C232.863 304.671 227.549 305.375 222.36 304.559C220.156 304.212 218.014 303.597 215.981 302.736V351.673H266.359C269.757 351.673 272.153 353.821 273.305 356.046C274.44 358.235 274.743 361.118 273.535 363.731C272.836 365.242 272.346 366.85 272.084 368.511C271.539 371.968 272.009 375.508 273.435 378.703C274.861 381.899 277.184 384.614 280.121 386.518C283.059 388.423 286.486 389.437 289.988 389.437C293.489 389.437 296.916 388.423 299.854 386.518C302.791 384.614 305.114 381.899 306.54 378.703C307.966 375.508 308.436 371.968 307.891 368.511C307.63 366.85 307.139 365.242 306.441 363.731C305.232 361.118 305.536 358.235 306.67 356.046C307.822 353.821 310.218 351.673 313.616 351.673H363.995V302.736C361.961 303.597 359.819 304.212 357.615 304.559C352.426 305.375 347.112 304.671 342.314 302.533C337.517 300.396 333.442 296.915 330.583 292.512C327.723 288.109 326.202 282.973 326.202 277.724C326.202 272.475 327.723 267.339 330.583 262.936C333.442 258.533 337.517 255.052 342.314 252.915C347.112 250.777 352.426 250.073 357.615 250.889C359.819 251.236 361.961 251.851 363.995 252.712V203.775H313.616C310.218 203.775 307.822 201.627 306.67 199.402C305.536 197.213 305.232 194.33 306.441 191.717C307.139 190.206 307.63 188.598 307.891 186.937C308.436 183.48 307.966 179.94 306.54 176.745C305.114 173.549 302.791 170.834 299.854 168.93C296.916 167.025 293.489 166.011 289.988 166.011Z" fill="black"/>
<path d="M470.726 199.213C468.112 199.213 466.568 202.474 467.664 204.845C468.537 206.733 469.15 208.743 469.477 210.819C470.158 215.14 469.571 219.565 467.788 223.56C466.005 227.555 463.102 230.947 459.431 233.329C455.759 235.71 451.475 236.977 447.098 236.977C442.72 236.977 438.437 235.71 434.765 233.329C431.093 230.947 428.19 227.555 426.407 223.56C424.624 219.565 424.037 215.14 424.718 210.819C425.045 208.743 425.658 206.733 426.531 204.845C427.628 202.474 426.083 199.213 423.469 199.213L371.58 199.213C369.912 199.213 368.56 200.565 368.56 202.232L368.56 254.08C368.56 256.692 365.296 258.235 362.924 257.14C361.034 256.267 359.023 255.655 356.944 255.328C352.62 254.648 348.192 255.234 344.194 257.016C340.196 258.797 336.801 261.698 334.418 265.367C332.035 269.036 330.767 273.316 330.767 277.69C330.767 282.064 332.035 286.344 334.418 290.013C336.801 293.682 340.196 296.583 344.194 298.365C348.192 300.146 352.62 300.732 356.944 300.052C359.023 299.725 361.034 299.113 362.924 298.24C365.296 297.145 368.56 298.688 368.56 301.3L368.56 353.149C368.56 354.816 369.912 356.167 371.58 356.167L423.469 356.167C426.083 356.167 427.628 352.906 426.531 350.536C425.658 348.647 425.045 346.637 424.718 344.561C424.037 340.24 424.624 335.815 426.407 331.82C428.19 327.826 431.093 324.433 434.765 322.052C438.437 319.671 442.72 318.403 447.098 318.403C451.475 318.403 455.759 319.671 459.431 322.052C463.102 324.433 466.005 327.826 467.788 331.82C469.571 335.815 470.158 340.24 469.477 344.561C469.15 346.637 468.537 348.647 467.664 350.536C466.568 352.906 468.112 356.167 470.726 356.167L522.615 356.167C524.283 356.167 525.636 354.816 525.636 353.149L525.636 301.3C525.636 298.688 528.899 297.145 531.272 298.24C533.162 299.113 535.173 299.725 537.251 300.052C541.575 300.732 546.004 300.146 550.001 298.365C553.999 296.583 557.395 293.682 559.778 290.013C562.161 286.344 563.429 282.064 563.429 277.69C563.429 273.316 562.161 269.036 559.778 265.367C557.395 261.698 553.999 258.797 550.001 257.016C546.004 255.234 541.575 254.648 537.251 255.328C535.173 255.655 533.162 256.267 531.272 257.14C528.899 258.235 525.636 256.692 525.636 254.08L525.636 202.232C525.636 200.565 524.283 199.213 522.615 199.213L470.726 199.213Z" fill="#D6147C"/>
<path fill-rule="evenodd" clip-rule="evenodd" d="M330.616 292.478C327.757 288.075 326.235 282.939 326.235 277.69C326.235 272.441 327.757 267.305 330.616 262.902C333.476 258.499 337.55 255.018 342.348 252.88C347.145 250.743 352.459 250.039 357.648 250.855C359.852 251.202 361.994 251.817 364.028 252.678L364.028 202.231C364.028 198.064 367.409 194.686 371.58 194.686L423.469 194.686C426.867 194.686 429.262 196.833 430.415 199.058C431.549 201.248 431.852 204.13 430.644 206.743C429.945 208.254 429.455 209.862 429.193 211.523C428.649 214.98 429.118 218.52 430.544 221.716C431.971 224.911 434.293 227.626 437.231 229.53C440.168 231.435 443.595 232.449 447.097 232.449C450.599 232.449 454.026 231.435 456.963 229.53C459.901 227.626 462.223 224.911 463.65 221.716C465.076 218.52 465.545 214.98 465.001 211.523C464.739 209.862 464.249 208.254 463.55 206.743C462.342 204.13 462.645 201.248 463.779 199.058C464.932 196.833 467.327 194.686 470.725 194.686L522.614 194.686C526.785 194.686 530.166 198.064 530.166 202.231L530.166 252.678C532.2 251.816 534.341 251.202 536.546 250.855C541.735 250.039 547.049 250.743 551.846 252.88C556.644 255.018 560.718 258.499 563.578 262.902C566.437 267.305 567.959 272.441 567.959 277.69C567.959 282.939 566.437 288.075 563.578 292.478C560.718 296.881 556.644 300.361 551.846 302.499C547.049 304.637 541.735 305.341 536.546 304.525C534.341 304.178 532.2 303.563 530.166 302.702L530.166 353.148C530.166 357.316 526.785 360.694 522.614 360.694L470.725 360.694C467.327 360.694 464.932 358.547 463.779 356.322C462.645 354.132 462.342 351.25 463.55 348.636C464.249 347.126 464.739 345.518 465.001 343.857C465.545 340.4 465.076 336.86 463.65 333.664C462.223 330.469 459.901 327.754 456.963 325.849C454.026 323.945 450.599 322.931 447.097 322.931C443.595 322.931 440.168 323.945 437.231 325.849C434.293 327.754 431.971 330.469 430.544 333.664C429.118 336.86 428.649 340.4 429.193 343.857C429.455 345.518 429.945 347.126 430.644 348.636C431.852 351.25 431.549 354.132 430.415 356.322C429.262 358.547 426.867 360.694 423.469 360.694L371.58 360.694C367.409 360.694 364.028 357.316 364.028 353.148L364.028 302.702C361.994 303.563 359.852 304.178 357.648 304.525C352.459 305.341 347.145 304.637 342.348 302.499C337.55 300.361 333.476 296.881 330.616 292.478ZM335.297 277.69C335.297 281.189 336.311 284.613 338.218 287.549C340.124 290.484 342.841 292.804 346.039 294.23C349.237 295.655 352.78 296.124 356.239 295.58C357.902 295.318 359.511 294.828 361.023 294.13C363.638 292.923 366.523 293.226 368.714 294.359C370.94 295.511 373.09 297.904 373.09 301.3L373.09 351.639L422.065 351.639C421.203 349.607 420.588 347.467 420.241 345.265C419.425 340.08 420.129 334.77 422.268 329.976C424.408 325.182 427.891 321.111 432.298 318.254C436.704 315.396 441.844 313.876 447.097 313.876C452.35 313.876 457.49 315.396 461.896 318.254C466.303 321.111 469.786 325.182 471.926 329.976C474.065 334.77 474.769 340.08 473.953 345.265C473.606 347.467 472.991 349.607 472.129 351.639L521.104 351.639L521.104 301.3C521.104 297.904 523.253 295.511 525.48 294.359C527.671 293.226 530.556 292.923 533.171 294.13C534.683 294.828 536.292 295.318 537.955 295.58C541.414 296.124 544.957 295.655 548.155 294.23C551.353 292.804 554.07 290.484 555.976 287.549C557.882 284.613 558.897 281.189 558.897 277.69C558.897 274.191 557.882 270.767 555.976 267.831C554.07 264.896 551.353 262.576 548.155 261.15C544.957 259.725 541.414 259.256 537.955 259.8C536.292 260.062 534.683 260.552 533.171 261.25C530.556 262.457 527.671 262.154 525.48 261.021C523.253 259.869 521.104 257.475 521.104 254.08L521.104 203.741L472.129 203.741C472.991 205.773 473.606 207.913 473.953 210.115C474.769 215.3 474.065 220.61 471.926 225.404C469.786 230.197 466.303 234.269 461.896 237.126C457.49 239.983 452.35 241.504 447.097 241.504C441.844 241.504 436.704 239.983 432.298 237.126C427.891 234.269 424.408 230.197 422.268 225.404C420.129 220.61 419.425 215.3 420.241 210.115C420.588 207.913 421.203 205.773 422.065 203.741L373.09 203.741L373.09 254.08C373.09 257.475 370.94 259.869 368.714 261.021C366.523 262.154 363.638 262.457 361.023 261.25C359.511 260.552 357.902 260.062 356.239 259.8C352.78 259.256 349.237 259.725 346.039 261.15C342.841 262.576 340.124 264.896 338.218 267.831C336.311 270.767 335.297 274.191 335.297 277.69Z" fill="black"/>
<path d="M156.573 199.213C153.959 199.213 152.414 202.474 153.511 204.845C154.384 206.733 154.997 208.743 155.324 210.819C156.005 215.14 155.418 219.565 153.635 223.56C151.852 227.555 148.949 230.947 145.277 233.329C141.605 235.71 137.322 236.977 132.944 236.977C128.567 236.977 124.283 235.71 120.611 233.329C116.94 230.947 114.037 227.555 112.254 223.56C110.471 219.565 109.884 215.14 110.565 210.819C110.892 208.743 111.505 206.733 112.378 204.845C113.474 202.474 111.93 199.213 109.316 199.213L57.4269 199.213C55.7587 199.213 54.4063 200.565 54.4063 202.232L54.4063 254.08C54.4063 256.692 51.1431 258.235 48.7704 257.14C46.8803 256.267 44.8692 255.655 42.7911 255.328C38.467 254.648 34.0383 255.234 30.0406 257.016C26.0428 258.797 22.6472 261.698 20.2643 265.367C17.8814 269.036 16.6133 273.316 16.6133 277.69C16.6133 282.064 17.8814 286.344 20.2643 290.013C22.6472 293.682 26.0428 296.583 30.0406 298.365C34.0383 300.146 38.467 300.732 42.7911 300.052C44.8692 299.725 46.8803 299.113 48.7704 298.24C51.1431 297.145 54.4063 298.688 54.4063 301.3L54.4063 353.149C54.4063 354.816 55.7587 356.167 57.427 356.167L109.316 356.167C111.93 356.167 113.474 352.906 112.378 350.536C111.505 348.647 110.892 346.637 110.565 344.561C109.884 340.24 110.471 335.815 112.254 331.82C114.037 327.826 116.94 324.433 120.611 322.052C124.283 319.671 128.567 318.403 132.944 318.403C137.322 318.403 141.605 319.671 145.277 322.052C148.949 324.433 151.852 327.826 153.635 331.82C155.418 335.815 156.005 340.24 155.324 344.561C154.997 346.637 154.384 348.647 153.511 350.536C152.414 352.906 153.959 356.167 156.573 356.167L208.462 356.167C210.13 356.167 211.482 354.816 211.482 353.149L211.482 301.3C211.482 298.688 214.746 297.145 217.118 298.24C219.008 299.113 221.019 299.725 223.098 300.052C227.422 300.732 231.85 300.146 235.848 298.365C239.846 296.583 243.241 293.682 245.624 290.013C248.007 286.344 249.275 282.064 249.275 277.69C249.275 273.316 248.007 269.036 245.624 265.367C243.241 261.698 239.846 258.797 235.848 257.016C231.85 255.234 227.422 254.648 223.098 255.328C221.019 255.655 219.008 256.267 217.118 257.14C214.746 258.235 211.482 256.692 211.482 254.08L211.482 202.232C211.482 200.565 210.13 199.213 208.462 199.213L156.573 199.213Z" fill="#D6147C"/>
<path fill-rule="evenodd" clip-rule="evenodd" d="M16.4643 292.478C13.6048 288.075 12.083 282.939 12.083 277.69C12.083 272.441 13.6048 267.305 16.4643 262.902C19.3237 258.499 23.3984 255.018 28.1957 252.88C32.9931 250.743 38.3075 250.039 43.4964 250.855C45.7006 251.202 47.8421 251.817 49.876 252.678L49.876 202.231C49.876 198.064 53.257 194.686 57.4277 194.686L109.317 194.686C112.715 194.686 115.11 196.833 116.263 199.058C117.397 201.248 117.701 204.13 116.492 206.743C115.793 208.254 115.303 209.862 115.041 211.523C114.497 214.98 114.966 218.52 116.393 221.716C117.819 224.911 120.141 227.626 123.079 229.53C126.016 231.435 129.443 232.449 132.945 232.449C136.447 232.449 139.874 231.435 142.811 229.53C145.749 227.626 148.071 224.911 149.498 221.716C150.924 218.52 151.393 214.98 150.849 211.523C150.587 209.862 150.097 208.254 149.398 206.743C148.19 204.13 148.493 201.248 149.627 199.058C150.78 196.833 153.175 194.686 156.573 194.686L208.462 194.686C212.633 194.686 216.014 198.064 216.014 202.231L216.014 252.678C218.048 251.816 220.19 251.202 222.394 250.855C227.583 250.039 232.897 250.743 237.694 252.88C242.492 255.018 246.566 258.499 249.426 262.902C252.285 267.305 253.807 272.441 253.807 277.69C253.807 282.939 252.285 288.075 249.426 292.478C246.566 296.881 242.492 300.361 237.694 302.499C232.897 304.637 227.583 305.341 222.394 304.525C220.19 304.178 218.048 303.563 216.014 302.702L216.014 353.148C216.014 357.316 212.633 360.694 208.462 360.694L156.573 360.694C153.175 360.694 150.78 358.547 149.627 356.322C148.493 354.132 148.19 351.25 149.398 348.636C150.097 347.126 150.587 345.518 150.849 343.857C151.393 340.4 150.924 336.86 149.498 333.664C148.071 330.469 145.749 327.754 142.811 325.849C139.874 323.945 136.447 322.931 132.945 322.931C129.443 322.931 126.016 323.945 123.079 325.849C120.141 327.754 117.819 330.469 116.393 333.664C114.966 336.86 114.497 340.4 115.041 343.857C115.303 345.518 115.793 347.126 116.492 348.636C117.701 351.25 117.397 354.132 116.263 356.322C115.11 358.547 112.715 360.694 109.317 360.694L57.4277 360.694C53.257 360.694 49.876 357.316 49.876 353.148L49.876 302.702C47.8422 303.563 45.7006 304.178 43.4964 304.525C38.3075 305.341 32.9931 304.637 28.1957 302.499C23.3984 300.361 19.3237 296.881 16.4643 292.478ZM21.1451 277.69C21.1451 281.189 22.1596 284.613 24.0659 287.549C25.9723 290.484 28.6887 292.804 31.8869 294.23C35.0851 295.655 38.6281 296.124 42.0874 295.58C43.7498 295.318 45.3587 294.828 46.8708 294.13C49.4864 292.923 52.3709 293.226 54.5619 294.359C56.7886 295.511 58.9381 297.904 58.9381 301.3L58.9381 351.639L107.913 351.639C107.052 349.607 106.436 347.467 106.089 345.265C105.273 340.08 105.977 334.77 108.116 329.976C110.256 325.182 113.739 321.111 118.146 318.254C122.552 315.396 127.692 313.876 132.945 313.876C138.198 313.876 143.338 315.396 147.745 318.254C152.151 321.111 155.634 325.182 157.774 329.976C159.913 334.77 160.617 340.08 159.801 345.265C159.454 347.467 158.839 349.607 157.977 351.639L206.952 351.639L206.952 301.3C206.952 297.904 209.102 295.511 211.328 294.359C213.519 293.226 216.404 292.923 219.019 294.13C220.532 294.828 222.14 295.318 223.803 295.58C227.262 296.124 230.805 295.655 234.003 294.23C237.201 292.804 239.918 290.484 241.824 287.549C243.731 284.613 244.745 281.189 244.745 277.69C244.745 274.191 243.731 270.767 241.824 267.831C239.918 264.896 237.201 262.576 234.003 261.15C230.805 259.725 227.262 259.256 223.803 259.8C222.14 260.062 220.532 260.552 219.019 261.25C216.404 262.457 213.519 262.154 211.328 261.021C209.102 259.869 206.952 257.475 206.952 254.08L206.952 203.741L157.977 203.741C158.839 205.773 159.454 207.913 159.801 210.115C160.617 215.3 159.913 220.61 157.774 225.404C155.634 230.197 152.151 234.269 147.745 237.126C143.338 239.983 138.198 241.504 132.945 241.504C127.692 241.504 122.552 239.983 118.146 237.126C113.739 234.269 110.256 230.197 108.116 225.404C105.977 220.61 105.273 215.3 106.089 210.115C106.436 207.913 107.052 205.773 107.913 203.741L58.9381 203.741L58.9381 254.08C58.9381 257.475 56.7886 259.869 54.5619 261.021C52.3709 262.154 49.4864 262.457 46.8708 261.25C45.3587 260.552 43.7498 260.062 42.0874 259.8C38.6281 259.256 35.0851 259.725 31.8869 261.15C28.6887 262.576 25.9723 264.896 24.0659 267.831C22.1596 270.767 21.1451 274.191 21.1451 277.69Z" fill="black"/>
<path d="M697.782 255.086C694.489 255.085 691.266 255.804 688.325 257.161C685.949 258.256 682.678 256.712 682.678 254.098V202.265C682.678 200.598 681.326 199.247 679.658 199.247H627.768C625.155 199.247 623.61 195.986 624.706 193.616C625.58 191.727 626.193 189.717 626.52 187.641C627.201 183.32 626.614 178.895 624.831 174.9C623.048 170.906 620.145 167.513 616.473 165.132C612.801 162.751 608.517 161.483 604.14 161.483C599.763 161.483 595.479 162.751 591.807 165.132C588.135 167.513 585.232 170.906 583.449 174.9C581.666 178.895 581.08 183.32 581.76 187.641C582.088 189.717 582.701 191.727 583.574 193.615C584.67 195.986 583.125 199.247 580.512 199.247H528.623C526.954 199.247 525.602 200.598 525.602 202.265V254.114C525.602 256.726 528.865 258.269 531.238 257.174C533.128 256.301 535.139 255.688 537.217 255.362C541.541 254.682 545.97 255.268 549.968 257.049C553.965 258.831 557.361 261.732 559.744 265.401C562.127 269.07 563.395 273.35 563.395 277.724C563.395 282.098 562.127 286.378 559.744 290.047C557.361 293.716 553.965 296.617 549.968 298.398C545.97 300.18 541.541 300.766 537.217 300.086C535.139 299.759 533.128 299.147 531.238 298.274C528.865 297.179 525.602 298.722 525.602 301.334V353.182C525.602 354.849 526.954 356.201 528.623 356.201H580.512C583.125 356.201 584.67 359.461 583.574 361.832C582.701 363.721 582.088 365.73 581.76 367.807C581.08 372.128 581.666 376.553 583.449 380.547C585.232 384.542 588.135 387.935 591.807 390.316C595.479 392.697 599.763 393.964 604.14 393.964C608.517 393.964 612.801 392.697 616.473 390.316C620.145 387.935 623.048 384.542 624.831 380.547C626.614 376.553 627.201 372.128 626.52 367.807C626.193 365.73 625.58 363.721 624.706 361.832C623.61 359.461 625.155 356.201 627.768 356.201H679.658C681.326 356.201 682.678 354.849 682.678 353.182V301.334C682.678 298.722 685.941 297.179 688.314 298.274C689.582 298.859 690.905 299.328 692.268 299.672C695.832 300.572 699.561 300.591 703.134 299.729C706.707 298.867 710.017 297.149 712.777 294.723C715.537 292.298 717.665 289.238 718.978 285.807C720.29 282.376 720.747 278.678 720.31 275.031C719.873 271.384 718.554 267.898 716.468 264.875C714.382 261.851 711.59 259.38 708.335 257.674C705.079 255.969 701.457 255.081 697.782 255.086Z" fill="#42BAAC"/>
<path fill-rule="evenodd" clip-rule="evenodd" d="M589.339 161.334C593.745 158.477 598.885 156.956 604.138 156.956C609.391 156.956 614.531 158.477 618.937 161.334C623.344 164.191 626.827 168.263 628.967 173.056C631.106 177.85 631.81 183.16 630.994 188.345C630.647 190.548 630.032 192.687 629.17 194.72H679.655C683.826 194.72 687.207 198.098 687.207 202.265V252.704C690.523 251.3 694.115 250.558 697.777 250.559C702.186 250.553 706.531 251.619 710.436 253.665C714.343 255.711 717.693 258.676 720.196 262.305C722.7 265.934 724.282 270.117 724.807 274.493C725.332 278.869 724.783 283.307 723.208 287.424C721.633 291.541 719.079 295.213 715.767 298.123C712.454 301.034 708.483 303.095 704.196 304.13C699.908 305.165 695.433 305.141 691.156 304.062C689.804 303.721 688.484 303.277 687.207 302.736V353.183C687.207 357.35 683.826 360.728 679.655 360.728H629.17C630.032 362.761 630.647 364.901 630.994 367.103C631.81 372.288 631.106 377.598 628.967 382.392C626.827 387.185 623.344 391.257 618.937 394.114C614.531 396.971 609.391 398.492 604.138 398.492C598.885 398.492 593.745 396.971 589.339 394.114C584.932 391.257 581.449 387.185 579.309 382.392C577.17 377.598 576.466 372.288 577.282 367.103C577.629 364.901 578.244 362.761 579.106 360.728H528.621C524.45 360.728 521.069 357.35 521.069 353.183V301.334C521.069 297.939 523.218 295.545 525.445 294.393C527.636 293.26 530.521 292.957 533.136 294.164C534.648 294.862 536.257 295.352 537.92 295.614C541.379 296.158 544.922 295.689 548.12 294.264C551.318 292.838 554.035 290.518 555.941 287.583C557.847 284.647 558.862 281.223 558.862 277.724C558.862 274.225 557.847 270.801 555.941 267.865C554.035 264.93 551.318 262.61 548.12 261.184C544.922 259.759 541.379 259.29 537.92 259.834C536.257 260.096 534.648 260.586 533.136 261.284C530.521 262.491 527.636 262.188 525.445 261.055C523.218 259.903 521.069 257.51 521.069 254.114V202.265C521.069 198.098 524.45 194.72 528.621 194.72H579.106C578.244 192.687 577.629 190.548 577.282 188.345C576.466 183.16 577.17 177.85 579.309 173.056C581.449 168.263 584.932 164.191 589.339 161.334ZM697.777 250.559C697.778 250.559 697.779 250.559 697.781 250.559L697.78 255.086L697.773 250.559C697.774 250.559 697.775 250.559 697.777 250.559ZM604.138 166.011C600.636 166.011 597.209 167.025 594.272 168.93C591.334 170.834 589.012 173.549 587.585 176.745C586.159 179.94 585.69 183.48 586.234 186.937C586.496 188.598 586.986 190.206 587.685 191.717C588.893 194.33 588.59 197.213 587.456 199.402C586.303 201.627 583.908 203.775 580.51 203.775H530.131V252.712C532.165 251.851 534.306 251.236 536.511 250.889C541.699 250.073 547.014 250.777 551.811 252.915C556.608 255.052 560.683 258.533 563.543 262.936C566.402 267.339 567.924 272.475 567.924 277.724C567.924 282.973 566.402 288.109 563.543 292.512C560.683 296.915 556.608 300.396 551.811 302.533C547.014 304.671 541.699 305.375 536.511 304.559C534.306 304.212 532.165 303.597 530.131 302.736V351.673H580.51C583.908 351.673 586.303 353.821 587.456 356.046C588.59 358.235 588.893 361.118 587.685 363.731C586.986 365.242 586.496 366.85 586.234 368.511C585.69 371.968 586.159 375.508 587.585 378.703C589.012 381.899 591.334 384.614 594.272 386.518C597.209 388.423 600.636 389.437 604.138 389.437C607.64 389.437 611.067 388.423 614.004 386.518C616.942 384.614 619.264 381.899 620.69 378.703C622.117 375.508 622.586 371.967 622.042 368.511C621.78 366.85 621.29 365.242 620.591 363.731C619.383 361.118 619.686 358.235 620.82 356.046C621.973 353.821 624.368 351.673 627.766 351.673H678.145V301.334C678.145 297.939 680.294 295.545 682.521 294.393C684.712 293.26 687.597 292.957 690.212 294.164C691.226 294.632 692.285 295.007 693.375 295.283C696.226 296.002 699.21 296.018 702.068 295.328C704.927 294.638 707.574 293.264 709.782 291.323C711.991 289.383 713.693 286.935 714.743 284.19C715.793 281.446 716.159 278.487 715.809 275.57C715.459 272.652 714.404 269.864 712.735 267.445C711.066 265.026 708.833 263.049 706.229 261.684C703.624 260.32 700.727 259.61 697.786 259.614H697.778C695.148 259.613 692.572 260.188 690.221 261.272C687.605 262.478 684.719 262.175 682.527 261.042C680.3 259.891 678.145 257.498 678.145 254.098V203.775H627.766C624.368 203.775 621.973 201.627 620.82 199.402C619.686 197.213 619.383 194.33 620.591 191.717C621.29 190.206 621.78 188.598 622.042 186.937C622.586 183.481 622.117 179.94 620.69 176.745C619.264 173.549 616.942 170.834 614.004 168.93C611.067 167.025 607.64 166.011 604.138 166.011Z" fill="black"/>
<path d="M253.772 27.2015C253.771 30.4913 254.49 33.7124 255.848 36.6511C256.945 39.0247 255.399 42.2932 252.782 42.2932L200.91 42.2932C199.242 42.2932 197.889 43.6446 197.889 45.3116L197.889 97.1602C197.889 99.7719 194.626 101.315 192.253 100.22C190.363 99.3473 188.352 98.7347 186.274 98.4078C181.95 97.7277 177.521 98.3141 173.523 100.096C169.526 101.877 166.13 104.778 163.747 108.447C161.364 112.116 160.096 116.396 160.096 120.77C160.096 125.144 161.364 129.424 163.747 133.093C166.13 136.762 169.526 139.663 173.523 141.445C177.521 143.226 181.95 143.812 186.274 143.132C188.352 142.806 190.363 142.193 192.253 141.32C194.626 140.225 197.889 141.768 197.889 144.38L197.889 196.229C197.889 197.896 199.242 199.247 200.91 199.247L252.799 199.247C255.413 199.247 256.957 195.986 255.861 193.616C254.988 191.727 254.375 189.717 254.048 187.641C253.367 183.32 253.954 178.895 255.737 174.9C257.52 170.906 260.422 167.513 264.094 165.132C267.766 162.751 272.05 161.484 276.427 161.484C280.805 161.484 285.088 162.751 288.76 165.132C292.432 167.513 295.335 170.906 297.118 174.9C298.901 178.895 299.488 183.32 298.807 187.641C298.48 189.717 297.867 191.727 296.994 193.616C295.897 195.986 297.442 199.247 300.056 199.247L351.945 199.247C353.613 199.247 354.965 197.896 354.965 196.229L354.965 144.38C354.965 141.768 358.228 140.225 360.601 141.32C362.491 142.193 364.502 142.806 366.58 143.132C370.905 143.812 375.333 143.226 379.331 141.445C383.329 139.663 386.724 136.762 389.107 133.093C391.49 129.424 392.758 125.144 392.758 120.77C392.758 116.396 391.49 112.116 389.107 108.447C386.724 104.778 383.329 101.877 379.331 100.096C375.333 98.3141 370.905 97.7277 366.58 98.4078C364.502 98.7347 362.491 99.3472 360.601 100.22C358.228 101.315 354.965 99.7719 354.965 97.1602L354.965 45.3116C354.965 43.6446 353.613 42.2932 351.945 42.2932L300.056 42.2932C297.442 42.2932 295.897 39.0327 296.994 36.6618C297.579 35.3953 298.048 34.0731 298.393 32.711C299.293 29.1499 299.312 25.4235 298.449 21.8533C297.586 18.2831 295.867 14.9762 293.44 12.2181C291.013 9.46005 287.95 7.33355 284.517 6.0221C281.083 4.71065 277.382 4.25363 273.732 4.69052C270.083 5.12741 266.594 6.44503 263.568 8.52977C260.542 10.6145 258.069 13.4037 256.362 16.6567C254.655 19.9097 253.766 23.5287 253.772 27.2015Z" fill="#FF53AF"/>
<path fill-rule="evenodd" clip-rule="evenodd" d="M159.947 135.556C157.088 131.153 155.566 126.017 155.566 120.768C155.566 115.519 157.088 110.383 159.947 105.98C162.807 101.577 166.881 98.0966 171.679 95.9587C176.476 93.8208 181.79 93.1171 186.979 93.9333C189.184 94.2799 191.325 94.8945 193.359 95.7557L193.359 45.3095C193.359 41.142 196.74 37.7636 200.911 37.7636L251.388 37.7636C249.983 34.4501 249.241 30.8616 249.242 27.2022C249.236 22.7961 250.302 18.4548 252.35 14.5524C254.398 10.6489 257.365 7.30185 260.997 4.80015C264.628 2.29844 268.815 0.717306 273.194 0.193047C277.574 -0.331234 282.015 0.217203 286.135 1.79092C290.255 3.36466 293.93 5.91649 296.843 9.2262C299.756 12.5359 301.819 16.5041 302.855 20.7884C303.89 25.0726 303.867 29.5443 302.786 33.8176C302.445 35.1692 302.001 36.4881 301.46 37.7636L351.945 37.7636C356.116 37.7636 359.497 41.142 359.497 45.3095L359.497 95.7557C361.531 94.8945 363.672 94.2799 365.877 93.9332C371.066 93.1171 376.38 93.8208 381.177 95.9587C385.975 98.0965 390.049 101.577 392.909 105.98C395.768 110.383 397.29 115.519 397.29 120.768C397.29 126.017 395.768 131.153 392.909 135.556C390.049 139.959 385.975 143.44 381.177 145.578C376.38 147.715 371.066 148.419 365.877 147.603C363.672 147.256 361.531 146.641 359.497 145.78L359.497 196.227C359.497 200.394 356.116 203.772 351.945 203.772L300.056 203.772C296.658 203.772 294.263 201.625 293.11 199.4C291.976 197.21 291.673 194.328 292.881 191.715C293.58 190.204 294.07 188.596 294.332 186.935C294.876 183.478 294.407 179.938 292.981 176.742C291.554 173.547 289.232 170.832 286.294 168.927C283.357 167.023 279.93 166.009 276.428 166.009C272.926 166.009 269.499 167.023 266.562 168.927C263.624 170.832 261.302 173.547 259.875 176.742C258.449 179.938 257.98 183.478 258.524 186.935C258.786 188.596 259.276 190.204 259.975 191.715C261.183 194.328 260.88 197.21 259.746 199.4C258.593 201.625 256.198 203.772 252.8 203.772L200.911 203.772C196.74 203.772 193.359 200.394 193.359 196.227L193.359 145.78C191.325 146.641 189.184 147.256 186.979 147.603C181.79 148.419 176.476 147.715 171.679 145.578C166.881 143.44 162.807 139.959 159.947 135.556ZM249.242 27.2022C249.242 27.2009 249.242 27.1995 249.242 27.1982L253.773 27.1994L249.242 27.2063C249.242 27.2049 249.242 27.2036 249.242 27.2022ZM164.628 120.768C164.628 124.267 165.643 127.691 167.549 130.627C169.455 133.562 172.172 135.882 175.37 137.308C178.568 138.733 182.111 139.202 185.57 138.658C187.233 138.396 188.842 137.906 190.354 137.208C192.969 136.001 195.854 136.304 198.045 137.437C200.271 138.589 202.421 140.983 202.421 144.378L202.421 194.717L251.396 194.717C250.534 192.685 249.919 190.545 249.572 188.343C248.756 183.158 249.46 177.848 251.599 173.054C253.739 168.261 257.222 164.189 261.629 161.332C266.035 158.474 271.175 156.954 276.428 156.954C281.681 156.954 286.821 158.474 291.227 161.332C295.634 164.189 299.117 168.261 301.257 173.054C303.396 177.848 304.1 183.158 303.284 188.343C302.937 190.545 302.322 192.685 301.46 194.717L350.435 194.717L350.435 144.378C350.435 140.983 352.585 138.589 354.811 137.437C357.002 136.304 359.887 136.001 362.502 137.208C364.014 137.906 365.623 138.396 367.286 138.658C370.745 139.202 374.288 138.733 377.486 137.308C380.684 135.882 383.401 133.562 385.307 130.627C387.213 127.691 388.228 124.267 388.228 120.768C388.228 117.269 387.213 113.845 385.307 110.909C383.401 107.974 380.684 105.654 377.486 104.228C374.288 102.803 370.745 102.334 367.286 102.878C365.623 103.14 364.014 103.63 362.502 104.328C359.887 105.535 357.002 105.232 354.811 104.099C352.585 102.947 350.435 100.554 350.435 97.1581L350.435 46.8186L300.056 46.8186C296.658 46.8186 294.263 44.6709 293.11 42.4459C291.976 40.2566 291.673 37.3743 292.881 34.7608C293.35 33.7476 293.725 32.6898 294 31.6001C294.72 28.7513 294.736 25.7702 294.046 22.914C293.355 20.0578 291.98 17.4123 290.038 15.2059C288.096 12.9994 285.646 11.2982 282.899 10.2491C280.153 9.1999 277.192 8.83427 274.272 9.18378C271.352 9.5333 268.562 10.5874 266.141 12.2552C263.72 13.9229 261.741 16.1543 260.376 18.7567C259.011 21.3591 258.299 24.2543 258.304 27.1926L258.304 27.2007C258.303 29.8294 258.878 32.4031 259.963 34.7516C261.171 37.3663 260.866 40.2499 259.733 42.4398C258.582 44.6651 256.186 46.8186 252.783 46.8186L202.421 46.8186L202.421 97.1581C202.421 100.554 200.271 102.947 198.045 104.099C195.854 105.232 192.969 105.535 190.354 104.328C188.842 103.63 187.233 103.14 185.57 102.878C182.111 102.334 178.568 102.803 175.37 104.228C172.172 105.654 169.455 107.974 167.549 110.909C165.643 113.845 164.628 117.269 164.628 120.768Z" fill="black"/>
<path d="M271.863 125.999C271.863 139.335 265.101 150.146 256.759 150.146C248.418 150.146 241.656 139.335 241.656 125.999C241.656 112.663 248.418 101.853 256.759 101.853C265.101 101.853 271.863 112.663 271.863 125.999Z" fill="white"/>
<path fill-rule="evenodd" clip-rule="evenodd" d="M261.035 139.074C262.907 136.082 264.311 131.479 264.311 125.999C264.311 120.519 262.907 115.916 261.035 112.924C259.097 109.826 257.387 109.398 256.759 109.398C256.132 109.398 254.421 109.826 252.483 112.924C250.612 115.916 249.207 120.519 249.207 125.999C249.207 131.479 250.612 136.082 252.483 139.074C254.421 142.173 256.132 142.6 256.759 142.6C257.387 142.6 259.097 142.173 261.035 139.074ZM256.759 150.146C265.101 150.146 271.863 139.335 271.863 125.999C271.863 112.663 265.101 101.853 256.759 101.853C248.418 101.853 241.656 112.663 241.656 125.999C241.656 139.335 248.418 150.146 256.759 150.146Z" fill="black"/>
<path d="M252.227 126.003C252.227 129.336 253.918 132.039 256.003 132.039C258.088 132.039 259.779 129.336 259.779 126.003C259.779 122.669 258.088 119.966 256.003 119.966C253.918 119.966 252.227 122.669 252.227 126.003Z" fill="black"/>
<path d="M314.152 125.999C314.152 139.335 307.39 150.146 299.048 150.146C290.707 150.146 283.945 139.335 283.945 125.999C283.945 112.663 290.707 101.853 299.048 101.853C307.39 101.853 314.152 112.663 314.152 125.999Z" fill="white"/>
<path fill-rule="evenodd" clip-rule="evenodd" d="M303.324 139.074C305.196 136.082 306.6 131.479 306.6 125.999C306.6 120.519 305.196 115.916 303.324 112.924C301.386 109.826 299.676 109.398 299.048 109.398C298.421 109.398 296.71 109.826 294.772 112.924C292.901 115.916 291.497 120.519 291.497 125.999C291.497 131.479 292.901 136.082 294.772 139.074C296.71 142.173 298.421 142.6 299.048 142.6C299.676 142.6 301.386 142.173 303.324 139.074ZM299.048 150.146C307.39 150.146 314.152 139.335 314.152 125.999C314.152 112.663 307.39 101.853 299.048 101.853C290.707 101.853 283.945 112.663 283.945 125.999C283.945 139.335 290.707 150.146 299.048 150.146Z" fill="black"/>
<path d="M294.518 126.003C294.518 129.336 296.209 132.039 298.294 132.039C300.379 132.039 302.07 129.336 302.07 126.003C302.07 122.669 300.379 119.966 298.294 119.966C296.209 119.966 294.518 122.669 294.518 126.003Z" fill="black"/>
<path d="M356.443 302.842C356.443 300.23 353.18 298.687 350.807 299.782C348.917 300.655 346.906 301.267 344.828 301.594C340.504 302.274 336.075 301.688 332.077 299.906C328.079 298.125 324.684 295.224 322.301 291.555C319.918 287.886 318.65 283.606 318.65 279.232C318.65 274.858 319.918 270.577 322.301 266.908C324.684 263.239 328.079 260.339 332.077 258.557C336.075 256.776 340.504 256.189 344.828 256.869C346.906 257.196 348.917 257.809 350.807 258.681C353.18 259.777 356.443 258.233 356.443 255.622V203.773C356.443 202.106 355.09 200.755 353.422 200.755H301.533C298.919 200.755 297.375 197.494 298.471 195.123C299.344 193.235 299.957 191.225 300.284 189.149C300.965 184.828 300.378 180.403 298.595 176.408C296.812 172.413 293.91 169.02 290.238 166.639C286.566 164.258 282.282 162.991 277.905 162.991C273.527 162.991 269.244 164.258 265.572 166.639C261.9 169.02 258.997 172.413 257.214 176.408C255.431 180.403 254.844 184.828 255.525 189.149C255.852 191.225 256.465 193.235 257.338 195.123C258.435 197.494 256.89 200.755 254.276 200.755H202.387C200.719 200.755 199.367 202.106 199.367 203.773V255.622C199.367 258.233 202.63 259.777 205.003 258.681C206.893 257.809 208.904 257.196 210.982 256.869C215.306 256.189 219.735 256.776 223.732 258.557C227.73 260.339 231.126 263.239 233.509 266.908C235.892 270.577 237.16 274.858 237.16 279.232C237.16 283.606 235.892 287.886 233.509 291.555C231.126 295.224 227.73 298.125 223.732 299.906C219.735 301.688 215.306 302.274 210.982 301.594C208.904 301.267 206.893 300.655 205.003 299.782C202.63 298.687 199.367 300.23 199.367 302.842V354.69C199.367 356.357 200.719 357.709 202.387 357.709H254.276C256.89 357.709 258.435 360.969 257.338 363.34C256.465 365.229 255.852 367.238 255.525 369.315C254.844 373.635 255.431 378.061 257.214 382.055C258.997 386.05 261.9 389.443 265.572 391.824C269.244 394.205 273.527 395.472 277.905 395.472C282.282 395.472 286.566 394.205 290.238 391.824C293.91 389.443 296.812 386.05 298.595 382.055C300.378 378.061 300.965 373.635 300.284 369.315C299.957 367.238 299.344 365.229 298.471 363.34C297.375 360.969 298.919 357.709 301.533 357.709H353.422C355.09 357.709 356.443 356.357 356.443 354.69V302.842Z" fill="#BEFFCC"/>
<path fill-rule="evenodd" clip-rule="evenodd" d="M263.104 162.842C267.51 159.984 272.65 158.464 277.903 158.464C283.156 158.464 288.296 159.984 292.703 162.842C297.109 165.699 300.592 169.77 302.732 174.564C304.871 179.358 305.575 184.668 304.759 189.853C304.412 192.055 303.797 194.195 302.935 196.227H353.42C357.591 196.227 360.972 199.606 360.972 203.773V255.622C360.972 259.017 358.823 261.411 356.596 262.563C354.405 263.696 351.521 263.999 348.905 262.792C347.393 262.094 345.784 261.604 344.122 261.342C340.662 260.798 337.119 261.267 333.921 262.692C330.723 264.117 328.006 266.438 326.1 269.373C324.194 272.308 323.179 275.733 323.179 279.232C323.179 282.731 324.194 286.155 326.1 289.09C328.006 292.026 330.723 294.346 333.921 295.771C337.119 297.197 340.662 297.666 344.122 297.122C345.784 296.86 347.393 296.37 348.905 295.672C351.521 294.465 354.405 294.768 356.596 295.901C358.823 297.053 360.972 299.446 360.972 302.842V354.69C360.972 358.858 357.591 362.236 353.42 362.236H302.935C303.797 364.269 304.412 366.408 304.759 368.611C305.575 373.796 304.871 379.106 302.732 383.9C300.592 388.693 297.109 392.765 292.703 395.622C288.296 398.479 283.156 400 277.903 400C272.65 400 267.51 398.479 263.104 395.622C258.697 392.765 255.214 388.693 253.074 383.9C250.935 379.106 250.231 373.796 251.047 368.611C251.394 366.408 252.01 364.269 252.871 362.236H202.386C198.215 362.236 194.834 358.858 194.834 354.69V302.842C194.834 299.446 196.983 297.053 199.21 295.901C201.401 294.768 204.286 294.465 206.901 295.672C208.413 296.37 210.022 296.86 211.685 297.122C215.144 297.666 218.687 297.197 221.885 295.771C225.083 294.346 227.8 292.026 229.706 289.09C231.612 286.155 232.627 282.731 232.627 279.232C232.627 275.733 231.612 272.308 229.706 269.373C227.8 266.438 225.083 264.117 221.885 262.692C218.687 261.267 215.144 260.798 211.685 261.342C210.022 261.604 208.413 262.094 206.901 262.792C204.286 263.999 201.401 263.696 199.21 262.563C196.983 261.411 194.834 259.017 194.834 255.622V203.773C194.834 199.606 198.215 196.227 202.386 196.227H252.871C252.01 194.195 251.394 192.055 251.047 189.853C250.231 184.668 250.935 179.358 253.074 174.564C255.214 169.77 258.697 165.699 263.104 162.842ZM277.903 167.519C274.401 167.519 270.974 168.533 268.037 170.437C265.099 172.342 262.777 175.057 261.351 178.252C259.924 181.448 259.455 184.988 259.999 188.445C260.261 190.106 260.751 191.714 261.45 193.225C262.659 195.838 262.355 198.72 261.221 200.91C260.068 203.135 257.673 205.282 254.275 205.282H203.896V254.22C205.93 253.358 208.071 252.744 210.276 252.397C215.465 251.581 220.779 252.284 225.576 254.422C230.374 256.56 234.448 260.041 237.308 264.444C240.167 268.847 241.689 273.983 241.689 279.232C241.689 284.481 240.167 289.617 237.308 294.02C234.448 298.423 230.374 301.903 225.576 304.041C220.779 306.179 215.465 306.883 210.276 306.067C208.071 305.72 205.93 305.105 203.896 304.244V353.181H254.275C257.673 353.181 260.068 355.329 261.221 357.554C262.355 359.743 262.659 362.626 261.45 365.239C260.751 366.75 260.261 368.358 259.999 370.019C259.455 373.475 259.924 377.016 261.351 380.211C262.777 383.407 265.099 386.121 268.037 388.026C270.974 389.931 274.401 390.945 277.903 390.945C281.405 390.945 284.832 389.931 287.769 388.026C290.707 386.121 293.029 383.407 294.456 380.211C295.882 377.016 296.351 373.475 295.807 370.019C295.545 368.358 295.055 366.75 294.356 365.239C293.148 362.626 293.451 359.743 294.585 357.554C295.738 355.329 298.133 353.181 301.531 353.181H351.91V304.244C349.876 305.105 347.735 305.72 345.531 306.067C340.342 306.883 335.027 306.179 330.23 304.041C325.433 301.903 321.358 298.423 318.498 294.02C315.639 289.617 314.117 284.481 314.117 279.232C314.117 273.983 315.639 268.847 318.498 264.444C321.358 260.041 325.433 256.56 330.23 254.422C335.027 252.284 340.342 251.581 345.531 252.397C347.735 252.744 349.876 253.358 351.91 254.22V205.282H301.531C298.133 205.282 295.738 203.135 294.585 200.91C293.451 198.72 293.148 195.838 294.356 193.225C295.055 191.714 295.545 190.106 295.807 188.445C296.351 184.988 295.882 181.448 294.456 178.252C293.029 175.057 290.707 172.342 287.769 170.437C284.832 168.533 281.405 167.519 277.903 167.519Z" fill="black"/>
<path d="M458.643 200.723C456.029 200.723 454.484 203.984 455.58 206.354C456.454 208.243 457.067 210.253 457.394 212.329C458.074 216.65 457.488 221.075 455.705 225.07C453.922 229.064 451.019 232.457 447.347 234.838C443.675 237.219 439.391 238.486 435.014 238.486C430.637 238.486 426.353 237.219 422.681 234.838C419.009 232.457 416.106 229.064 414.323 225.07C412.541 221.075 411.954 216.65 412.634 212.329C412.962 210.253 413.575 208.243 414.448 206.354C415.544 203.984 414 200.723 411.386 200.723L359.497 200.723C357.828 200.723 356.476 202.074 356.476 203.741L356.476 255.59C356.476 258.202 353.213 259.745 350.84 258.65C348.95 257.777 346.939 257.164 344.861 256.838C340.537 256.158 336.108 256.744 332.11 258.525C328.113 260.307 324.717 263.208 322.334 266.877C319.951 270.546 318.683 274.826 318.683 279.2C318.683 283.574 319.951 287.854 322.334 291.523C324.717 295.192 328.113 298.093 332.11 299.874C336.108 301.656 340.537 302.242 344.861 301.562C346.939 301.235 348.95 300.623 350.84 299.75C353.213 298.655 356.476 300.198 356.476 302.81L356.476 354.658C356.476 356.325 357.828 357.677 359.497 357.677L411.386 357.677C414 357.677 415.544 354.416 414.448 352.045C413.575 350.157 412.962 348.147 412.634 346.071C411.954 341.75 412.541 337.325 414.323 333.33C416.106 329.335 419.009 325.942 422.681 323.561C426.353 321.18 430.637 319.913 435.014 319.913C439.391 319.913 443.675 321.18 447.347 323.561C451.019 325.942 453.922 329.335 455.705 333.33C457.488 337.325 458.074 341.75 457.394 346.071C457.067 348.147 456.454 350.157 455.58 352.045C454.484 354.416 456.029 357.677 458.643 357.677L510.532 357.677C512.2 357.677 513.552 356.325 513.552 354.658L513.552 302.81C513.552 300.198 516.815 298.655 519.188 299.75C521.078 300.623 523.089 301.235 525.167 301.562C529.491 302.242 533.92 301.656 537.918 299.874C541.916 298.093 545.311 295.192 547.694 291.523C550.077 287.854 551.345 283.574 551.345 279.2C551.345 274.826 550.077 270.546 547.694 266.877C545.311 263.208 541.916 260.307 537.918 258.525C533.92 256.744 529.491 256.158 525.167 256.838C523.089 257.164 521.078 257.777 519.188 258.65C516.815 259.745 513.552 258.202 513.552 255.59L513.552 203.741C513.552 202.074 512.2 200.723 510.532 200.723L458.643 200.723Z" fill="#FF53AF"/>
<path fill-rule="evenodd" clip-rule="evenodd" d="M318.534 293.986C315.675 289.583 314.153 284.446 314.153 279.198C314.153 273.949 315.675 268.813 318.534 264.41C321.394 260.007 325.468 256.526 330.266 254.388C335.063 252.25 340.377 251.547 345.566 252.363C347.77 252.71 349.912 253.324 351.946 254.185L351.946 203.739C351.946 199.572 355.327 196.193 359.498 196.193L411.387 196.193C414.785 196.193 417.18 198.341 418.333 200.566C419.467 202.755 419.77 205.638 418.562 208.251C417.863 209.762 417.373 211.37 417.111 213.031C416.567 216.487 417.036 220.028 418.462 223.223C419.889 226.419 422.211 229.133 425.149 231.038C428.086 232.943 431.513 233.957 435.015 233.957C438.517 233.957 441.944 232.943 444.881 231.038C447.819 229.133 450.141 226.419 451.567 223.223C452.994 220.028 453.463 216.487 452.919 213.031C452.657 211.37 452.167 209.762 451.468 208.251C450.26 205.638 450.563 202.755 451.697 200.566C452.85 198.341 455.245 196.193 458.643 196.193L510.532 196.193C514.703 196.193 518.084 199.572 518.084 203.739L518.084 254.185C520.118 253.324 522.259 252.71 524.464 252.363C529.653 251.547 534.967 252.25 539.764 254.388C544.562 256.526 548.636 260.007 551.496 264.41C554.355 268.813 555.877 273.949 555.877 279.198C555.877 284.446 554.355 289.583 551.496 293.986C548.636 298.389 544.562 301.869 539.764 304.007C534.967 306.145 529.653 306.849 524.464 306.032C522.259 305.686 520.118 305.071 518.084 304.21L518.084 354.656C518.084 358.824 514.703 362.202 510.532 362.202L458.643 362.202C455.245 362.202 452.85 360.054 451.697 357.829C450.563 355.64 450.26 352.758 451.468 350.144C452.167 348.633 452.657 347.026 452.919 345.365C453.463 341.908 452.994 338.368 451.567 335.172C450.141 331.976 447.819 329.262 444.881 327.357C441.944 325.452 438.517 324.439 435.015 324.439C431.513 324.439 428.086 325.452 425.149 327.357C422.211 329.262 419.889 331.976 418.462 335.172C417.036 338.368 416.567 341.908 417.111 345.365C417.373 347.026 417.863 348.633 418.562 350.144C419.77 352.758 419.467 355.64 418.333 357.829C417.18 360.054 414.785 362.202 411.387 362.202L359.498 362.202C355.327 362.202 351.946 358.824 351.946 354.656L351.946 304.21C349.912 305.071 347.77 305.686 345.566 306.032C340.377 306.849 335.063 306.145 330.266 304.007C325.468 301.869 321.394 298.389 318.534 293.986ZM323.215 279.198C323.215 282.697 324.229 286.121 326.136 289.056C328.042 291.992 330.759 294.312 333.957 295.737C337.155 297.163 340.698 297.632 344.157 297.088C345.82 296.826 347.429 296.336 348.941 295.638C351.556 294.43 354.441 294.734 356.632 295.867C358.858 297.019 361.008 299.412 361.008 302.808L361.008 353.147L409.983 353.147C409.121 351.115 408.506 348.975 408.159 346.773C407.343 341.588 408.047 336.277 410.186 331.484C412.326 326.69 415.809 322.619 420.215 319.761C424.622 316.904 429.762 315.384 435.015 315.384C440.268 315.384 445.408 316.904 449.814 319.761C454.221 322.619 457.704 326.69 459.844 331.484C461.983 336.277 462.687 341.588 461.871 346.773C461.524 348.975 460.909 351.115 460.047 353.147L509.022 353.147L509.022 302.808C509.022 299.412 511.171 297.019 513.398 295.867C515.589 294.734 518.474 294.43 521.089 295.638C522.601 296.336 524.21 296.826 525.873 297.088C529.332 297.632 532.875 297.163 536.073 295.737C539.271 294.312 541.988 291.992 543.894 289.056C545.8 286.121 546.815 282.697 546.815 279.198C546.815 275.699 545.8 272.274 543.894 269.339C541.988 266.404 539.271 264.083 536.073 262.658C532.875 261.233 529.332 260.764 525.873 261.308C524.21 261.569 522.601 262.059 521.089 262.758C518.474 263.965 515.589 263.662 513.398 262.528C511.171 261.377 509.022 258.983 509.022 255.588L509.022 205.248L460.047 205.248C460.909 207.281 461.524 209.42 461.871 211.623C462.687 216.808 461.983 222.118 459.844 226.912C457.704 231.705 454.221 235.777 449.814 238.634C445.408 241.491 440.268 243.012 435.015 243.012C429.762 243.012 424.622 241.491 420.215 238.634C415.809 235.777 412.326 231.705 410.186 226.912C408.047 222.118 407.343 216.808 408.159 211.623C408.506 209.42 409.121 207.281 409.983 205.248L361.008 205.248L361.008 255.588C361.008 258.983 358.858 261.377 356.632 262.529C354.441 263.662 351.556 263.965 348.941 262.758C347.429 262.059 345.82 261.569 344.157 261.308C340.698 260.764 337.155 261.233 333.957 262.658C330.759 264.083 328.042 266.404 326.136 269.339C324.229 272.274 323.215 275.699 323.215 279.198Z" fill="black"/>
<path d="M144.49 200.723C141.876 200.723 140.332 203.984 141.428 206.354C142.301 208.243 142.914 210.253 143.241 212.329C143.922 216.65 143.335 221.075 141.552 225.07C139.77 229.064 136.867 232.457 133.195 234.838C129.523 237.219 125.239 238.486 120.862 238.486C116.484 238.486 112.201 237.219 108.529 234.838C104.857 232.457 101.954 229.064 100.171 225.07C98.3882 221.075 97.8015 216.65 98.4821 212.329C98.8092 210.253 99.4223 208.243 100.296 206.354C101.392 203.984 99.8472 200.723 97.2334 200.723L45.3444 200.723C43.6761 200.723 42.3237 202.074 42.3237 203.741L42.3237 255.59C42.3237 258.202 39.0606 259.745 36.6879 258.65C34.7978 257.777 32.7867 257.164 30.7086 256.838C26.3845 256.158 21.9558 256.744 17.958 258.525C13.9603 260.307 10.5647 263.208 8.18181 266.877C5.79892 270.546 4.53076 274.826 4.53076 279.2C4.53076 283.574 5.79892 287.854 8.18181 291.523C10.5647 295.192 13.9603 298.093 17.958 299.874C21.9558 301.656 26.3845 302.242 30.7086 301.562C32.7867 301.235 34.7978 300.623 36.6879 299.75C39.0606 298.655 42.3237 300.198 42.3237 302.81L42.3237 354.658C42.3237 356.325 43.6762 357.677 45.3444 357.677L97.2335 357.677C99.8472 357.677 101.392 354.416 100.296 352.045C99.4223 350.157 98.8092 348.147 98.4821 346.071C97.8015 341.75 98.3882 337.325 100.171 333.33C101.954 329.335 104.857 325.942 108.529 323.561C112.201 321.18 116.484 319.913 120.862 319.913C125.239 319.913 129.523 321.18 133.195 323.561C136.867 325.942 139.77 329.335 141.552 333.33C143.335 337.325 143.922 341.75 143.241 346.071C142.914 348.147 142.301 350.157 141.428 352.045C140.332 354.416 141.876 357.677 144.49 357.677L196.379 357.677C198.047 357.677 199.4 356.325 199.4 354.658L199.4 302.81C199.4 300.198 202.663 298.655 205.036 299.75C206.926 300.623 208.937 301.235 211.015 301.562C215.339 302.242 219.768 301.656 223.766 299.874C227.763 298.093 231.159 295.192 233.542 291.523C235.925 287.854 237.193 283.574 237.193 279.2C237.193 274.826 235.925 270.546 233.542 266.877C231.159 263.208 227.763 260.307 223.766 258.525C219.768 256.744 215.339 256.158 211.015 256.838C208.937 257.164 206.926 257.777 205.036 258.65C202.663 259.745 199.4 258.202 199.4 255.59L199.4 203.741C199.4 202.074 198.047 200.723 196.379 200.723L144.49 200.723Z" fill="#FF53AF"/>
<path fill-rule="evenodd" clip-rule="evenodd" d="M4.38125 293.987C1.52179 289.584 -3.39881e-06 284.447 -3.62824e-06 279.199C-3.85767e-06 273.95 1.52179 268.814 4.38125 264.411C7.24072 260.008 11.3154 256.527 16.1127 254.389C20.9101 252.251 26.2245 251.548 31.4134 252.364C33.6176 252.711 35.7591 253.325 37.793 254.186L37.793 203.74C37.793 199.573 41.174 196.194 45.3447 196.194L97.2337 196.194C100.632 196.194 103.027 198.342 104.18 200.567C105.314 202.756 105.618 205.639 104.409 208.252C103.71 209.763 103.22 211.371 102.958 213.032C102.414 216.488 102.883 220.029 104.31 223.224C105.736 226.42 108.058 229.134 110.996 231.039C113.933 232.944 117.36 233.958 120.862 233.958C124.364 233.958 127.791 232.944 130.728 231.039C133.666 229.134 135.988 226.42 137.415 223.224C138.841 220.029 139.31 216.488 138.766 213.032C138.504 211.371 138.014 209.763 137.315 208.252C136.107 205.639 136.41 202.756 137.544 200.567C138.697 198.342 141.092 196.194 144.49 196.194L196.379 196.194C200.55 196.194 203.931 199.573 203.931 203.74L203.931 254.186C205.965 253.325 208.107 252.711 210.311 252.364C215.5 251.548 220.814 252.251 225.611 254.389C230.409 256.527 234.483 260.008 237.343 264.411C240.202 268.814 241.724 273.95 241.724 279.199C241.724 284.447 240.202 289.584 237.343 293.987C234.483 298.389 230.409 301.87 225.611 304.008C220.814 306.146 215.5 306.849 210.311 306.033C208.107 305.687 205.965 305.072 203.931 304.211L203.931 354.657C203.931 358.825 200.55 362.203 196.379 362.203L144.49 362.203C141.092 362.203 138.697 360.055 137.544 357.83C136.41 355.641 136.107 352.759 137.315 350.145C138.014 348.634 138.504 347.027 138.766 345.366C139.31 341.909 138.841 338.369 137.415 335.173C135.988 331.977 133.666 329.263 130.728 327.358C127.791 325.453 124.364 324.44 120.862 324.44C117.36 324.44 113.933 325.453 110.996 327.358C108.058 329.263 105.736 331.977 104.31 335.173C102.883 338.369 102.414 341.909 102.958 345.366C103.22 347.027 103.71 348.634 104.409 350.145C105.618 352.759 105.314 355.641 104.18 357.83C103.027 360.055 100.632 362.203 97.2337 362.203L45.3447 362.203C41.174 362.203 37.793 358.825 37.793 354.657L37.793 304.211C35.7591 305.072 33.6176 305.687 31.4134 306.033C26.2245 306.85 20.9101 306.146 16.1127 304.008C11.3154 301.87 7.24073 298.389 4.38125 293.987ZM9.06208 279.199C9.06208 282.698 10.0766 286.122 11.9829 289.057C13.8892 291.993 16.6057 294.313 19.8039 295.738C23.0021 297.164 26.5451 297.633 30.0044 297.089C31.6668 296.827 33.2757 296.337 34.7878 295.639C37.4034 294.431 40.2879 294.735 42.4789 295.868C44.7056 297.02 46.8551 299.413 46.8551 302.809L46.8551 353.148L95.8303 353.148C94.9685 351.116 94.3534 348.976 94.0065 346.773C93.1897 341.589 93.8937 336.278 96.0333 331.485C98.1729 326.691 101.656 322.62 106.063 319.762C110.469 316.905 115.609 315.385 120.862 315.385C126.115 315.385 131.255 316.905 135.662 319.762C140.068 322.62 143.551 326.691 145.691 331.485C147.83 336.278 148.534 341.589 147.718 346.773C147.371 348.976 146.756 351.116 145.894 353.148L194.869 353.148L194.869 302.809C194.869 299.413 197.019 297.02 199.245 295.868C201.436 294.735 204.321 294.431 206.936 295.639C208.449 296.337 210.057 296.827 211.72 297.088C215.179 297.633 218.722 297.164 221.92 295.738C225.118 294.313 227.835 291.993 229.741 289.057C231.648 286.122 232.662 282.698 232.662 279.199C232.662 275.7 231.648 272.275 229.741 269.34C227.835 266.405 225.118 264.084 221.92 262.659C218.722 261.234 215.179 260.765 211.72 261.309C210.057 261.57 208.448 262.06 206.936 262.758C204.321 263.966 201.436 263.663 199.245 262.529C197.019 261.378 194.869 258.984 194.869 255.589L194.869 205.249L145.894 205.249C146.756 207.282 147.371 209.421 147.718 211.624C148.534 216.809 147.83 222.119 145.691 226.913C143.551 231.706 140.068 235.778 135.662 238.635C131.255 241.492 126.115 243.013 120.862 243.013C115.609 243.013 110.469 241.492 106.063 238.635C101.656 235.778 98.1729 231.706 96.0333 226.913C93.8937 222.119 93.1897 216.809 94.0065 211.624C94.3534 209.421 94.9685 207.282 95.8303 205.249L46.8551 205.249L46.8551 255.589C46.8551 258.984 44.7056 261.378 42.4789 262.529C40.2879 263.663 37.4034 263.966 34.7878 262.758C33.2757 262.06 31.6668 261.57 30.0044 261.309C26.5451 260.765 23.0021 261.234 19.8039 262.659C16.6057 264.084 13.8892 266.405 11.9829 269.34C10.0766 272.275 9.06208 275.7 9.06208 279.199Z" fill="black"/>
<path d="M685.697 256.594C682.404 256.593 679.181 257.312 676.24 258.668C673.864 259.764 670.593 258.22 670.593 255.605V203.773C670.593 202.106 669.241 200.755 667.573 200.755H615.684C613.07 200.755 611.525 197.494 612.621 195.123C613.495 193.235 614.108 191.225 614.435 189.149C615.116 184.828 614.529 180.403 612.746 176.408C610.963 172.413 608.06 169.02 604.388 166.639C600.716 164.258 596.433 162.991 592.055 162.991C587.678 162.991 583.394 164.258 579.722 166.639C576.05 169.02 573.147 172.413 571.364 176.408C569.582 180.403 568.995 184.828 569.675 189.149C570.003 191.225 570.616 193.235 571.489 195.123C572.585 197.494 571.041 200.755 568.427 200.755H516.538C514.869 200.755 513.517 202.106 513.517 203.773V255.622C513.517 258.233 516.78 259.777 519.153 258.681C521.043 257.809 523.054 257.196 525.132 256.869C529.456 256.189 533.885 256.776 537.883 258.557C541.881 260.339 545.276 263.239 547.659 266.908C550.042 270.577 551.31 274.858 551.31 279.232C551.31 283.606 550.042 287.886 547.659 291.555C545.276 295.224 541.881 298.125 537.883 299.906C533.885 301.688 529.456 302.274 525.132 301.594C523.054 301.267 521.043 300.655 519.153 299.782C516.78 298.687 513.517 300.23 513.517 302.842V354.69C513.517 356.357 514.87 357.709 516.538 357.709H568.427C571.041 357.709 572.585 360.969 571.489 363.34C570.616 365.229 570.003 367.238 569.675 369.315C568.995 373.635 569.582 378.061 571.364 382.055C573.147 386.05 576.05 389.443 579.722 391.824C583.394 394.205 587.678 395.472 592.055 395.472C596.433 395.472 600.716 394.205 604.388 391.824C608.06 389.443 610.963 386.05 612.746 382.055C614.529 378.061 615.116 373.635 614.435 369.315C614.108 367.238 613.495 365.229 612.621 363.34C611.525 360.969 613.07 357.709 615.684 357.709H667.573C669.241 357.709 670.593 356.357 670.593 354.69V302.842C670.593 300.23 673.856 298.687 676.229 299.782C677.497 300.367 678.82 300.836 680.183 301.18C683.747 302.079 687.476 302.099 691.049 301.237C694.622 300.374 697.932 298.656 700.692 296.231C703.452 293.806 705.58 290.745 706.893 287.315C708.205 283.884 708.662 280.186 708.225 276.539C707.788 272.892 706.469 269.406 704.383 266.382C702.297 263.359 699.505 260.887 696.25 259.182C692.994 257.477 689.372 256.589 685.697 256.594Z" fill="#BEFFCC"/>
<path fill-rule="evenodd" clip-rule="evenodd" d="M577.257 162.842C581.663 159.984 586.804 158.464 592.056 158.464C597.309 158.464 602.45 159.984 606.856 162.842C611.262 165.699 614.746 169.771 616.885 174.564C619.025 179.358 619.729 184.668 618.912 189.853C618.565 192.055 617.95 194.195 617.088 196.227H667.574C671.744 196.227 675.126 199.606 675.126 203.773V254.211C678.442 252.807 682.033 252.066 685.695 252.067C690.105 252.061 694.449 253.127 698.355 255.172C702.261 257.219 705.611 260.184 708.115 263.813C710.618 267.441 712.201 271.624 712.725 276C713.25 280.377 712.701 284.815 711.126 288.931C709.551 293.048 706.997 296.721 703.685 299.631C700.373 302.542 696.402 304.603 692.114 305.638C687.826 306.672 683.351 306.649 679.075 305.57C677.722 305.228 676.402 304.785 675.126 304.244V354.69C675.126 358.858 671.745 362.236 667.574 362.236H617.088C617.95 364.268 618.565 366.408 618.912 368.611C619.729 373.796 619.025 379.106 616.885 383.9C614.746 388.693 611.262 392.765 606.856 395.622C602.45 398.479 597.309 400 592.056 400C586.804 400 581.663 398.479 577.257 395.622C572.851 392.765 569.367 388.693 567.228 383.9C565.088 379.106 564.384 373.796 565.201 368.611C565.548 366.408 566.163 364.269 567.025 362.236H516.539C512.368 362.236 508.987 358.858 508.987 354.69V302.842C508.987 299.446 511.137 297.053 513.363 295.901C515.554 294.768 518.439 294.465 521.055 295.672C522.567 296.37 524.176 296.86 525.838 297.122C529.297 297.666 532.84 297.197 536.038 295.771C539.237 294.346 541.953 292.026 543.859 289.09C545.766 286.155 546.78 282.731 546.78 279.232C546.78 275.733 545.766 272.308 543.859 269.373C541.953 266.438 539.237 264.117 536.038 262.692C532.84 261.267 529.297 260.798 525.838 261.342C524.176 261.604 522.567 262.094 521.055 262.792C518.439 263.999 515.554 263.696 513.363 262.563C511.137 261.411 508.987 259.017 508.987 255.622V203.773C508.987 199.606 512.368 196.227 516.539 196.227H567.025C566.163 194.195 565.548 192.055 565.201 189.853C564.384 184.668 565.088 179.358 567.228 174.564C569.367 169.77 572.851 165.699 577.257 162.842ZM685.695 252.067C685.697 252.067 685.698 252.067 685.699 252.067L685.698 256.594L685.691 252.067C685.692 252.067 685.694 252.067 685.695 252.067ZM592.056 167.519C588.555 167.519 585.128 168.533 582.19 170.437C579.253 172.342 576.93 175.057 575.504 178.252C574.078 181.448 573.608 184.988 574.153 188.445C574.414 190.106 574.905 191.714 575.603 193.225C576.812 195.838 576.508 198.72 575.374 200.91C574.222 203.135 571.826 205.282 568.428 205.282H518.049V254.22C520.083 253.358 522.225 252.744 524.429 252.397C529.618 251.581 534.932 252.284 539.73 254.422C544.527 256.56 548.602 260.041 551.461 264.444C554.321 268.847 555.842 273.983 555.842 279.232C555.842 284.481 554.321 289.617 551.461 294.02C548.602 298.423 544.527 301.903 539.73 304.041C534.932 306.179 529.618 306.883 524.429 306.067C522.225 305.72 520.083 305.105 518.049 304.244V353.181H568.428C571.826 353.181 574.222 355.329 575.374 357.554C576.508 359.743 576.812 362.626 575.603 365.239C574.905 366.75 574.414 368.358 574.153 370.019C573.608 373.475 574.078 377.016 575.504 380.211C576.93 383.407 579.253 386.121 582.19 388.026C585.128 389.931 588.555 390.945 592.056 390.945C595.558 390.945 598.985 389.931 601.923 388.026C604.86 386.121 607.182 383.407 608.609 380.211C610.035 377.015 610.505 373.475 609.96 370.019C609.699 368.358 609.208 366.75 608.51 365.239C607.301 362.626 607.604 359.743 608.739 357.554C609.891 355.329 612.287 353.181 615.685 353.181H666.063V302.842C666.063 299.446 668.213 297.053 670.44 295.901C672.631 294.768 675.515 294.465 678.131 295.672C679.145 296.14 680.203 296.515 681.294 296.79C684.145 297.51 687.128 297.526 689.987 296.836C692.845 296.146 695.493 294.772 697.701 292.831C699.909 290.891 701.612 288.443 702.662 285.698C703.712 282.954 704.077 279.995 703.728 277.078C703.378 274.16 702.323 271.371 700.654 268.952C698.985 266.533 696.752 264.556 694.147 263.192C691.543 261.828 688.645 261.117 685.705 261.122H685.697C683.066 261.121 680.49 261.695 678.14 262.779C675.523 263.986 672.637 263.682 670.446 262.55C668.219 261.399 666.063 259.006 666.063 255.606V205.282H615.685C612.287 205.282 609.891 203.135 608.739 200.91C607.604 198.72 607.301 195.838 608.51 193.225C609.208 191.714 609.699 190.106 609.96 188.445C610.505 184.988 610.035 181.448 608.609 178.252C607.182 175.057 604.86 172.342 601.923 170.437C598.985 168.533 595.558 167.519 592.056 167.519Z" fill="black"/>
<path d="M455.052 251.634H445.553V287.771H455.052V251.634ZM409.623 268.376C409.564 276.364 416.231 282.053 424.904 282.053C433.518 282.053 440.214 276.364 440.184 268.376C440.214 260.536 433.518 254.876 424.904 254.876C416.231 254.876 409.564 260.536 409.623 268.376ZM414.402 298.619L418.06 305.988C426.91 304.72 432.721 301.153 435.937 296.467C439.152 301.153 444.963 304.72 453.931 305.988L457.589 298.619C444.698 296.968 440.863 290.984 440.892 286.003V285.295H431.04V286.003C431.04 290.955 427.264 297.056 414.402 298.619ZM418.827 268.376C418.798 264.692 421.335 262.864 424.904 262.894C428.326 262.864 430.804 264.692 430.804 268.376C430.804 272.179 428.326 274.065 424.904 274.095C421.335 274.065 418.798 272.179 418.827 268.376Z" fill="black"/>
<path d="M295.615 251.634H286.117V278.575H295.615V269.143H302.4V261.361H295.615V251.634ZM253.137 277.101H279.922V253.874H253.137V277.101ZM258.565 305.693H296.913V298.324H267.945V296.378H295.615V280.461H258.565V287.653H286.176V289.599H258.565V305.693ZM262.517 269.673V261.302H270.541V269.673H262.517Z" fill="black"/>
<path d="M622.996 251.634H613.379V306.164H622.996V251.634ZM576.564 289.953L581.402 297.381C601.668 287.948 606.506 274.301 606.476 257.234H579.691V264.603H596.86C595.621 276.01 590.163 283.497 576.564 289.953Z" fill="black"/>
<path d="M124.437 269.732H114.88V275.981H94.8794V283.232H144.674V275.981H124.437V269.732ZM97.1213 265.959L100.543 273.151C109.983 272.001 116.119 268.7 119.511 264.131C122.933 268.759 129.157 272.001 138.774 273.151L142.078 265.959C128.007 264.485 124.467 259.12 124.496 253.697V252.341H114.821V253.697C114.791 258.737 110.897 264.455 97.1213 265.959ZM100.366 305.692H138.892V285.236H129.393V288.419H109.688V285.236H100.366V305.692ZM109.688 298.323V295.435H129.393V298.323H109.688Z" fill="black"/>
</svg>
