<svg width="80" height="147" viewBox="0 0 80 147" fill="none" xmlns="http://www.w3.org/2000/svg">
<path d="M32.5021 8.99113C32.5018 10.0787 32.7398 11.1436 33.1891 12.1152C33.552 12.8999 33.0404 13.9804 32.1746 13.9804L15.007 13.9804C14.4549 13.9804 14.0073 14.4272 14.0073 14.9783L14.0073 32.1194C14.0073 32.9828 12.9274 33.493 12.1421 33.1309C11.5166 32.8424 10.851 32.6399 10.1632 32.5318C8.73213 32.307 7.26643 32.5008 5.94335 33.0898C4.62027 33.6788 3.49648 34.6378 2.70785 35.8507C1.91921 37.0637 1.49951 38.4788 1.49951 39.9248C1.49951 41.3708 1.91921 42.7859 2.70785 43.9988C3.49648 45.2118 4.62027 46.1708 5.94335 46.7598C7.26643 47.3488 8.73213 47.5425 10.1632 47.3177C10.851 47.2097 11.5166 47.0071 12.1421 46.7187C12.9274 46.3565 14.0073 46.8668 14.0073 47.7302L14.0073 64.8713C14.0073 65.4224 14.4549 65.8691 15.007 65.8691L32.18 65.8691C33.045 65.8691 33.5562 64.7912 33.1934 64.0074C32.9044 63.383 32.7015 62.7187 32.5933 62.0322C32.368 60.6038 32.5621 59.1408 33.1522 57.8201C33.7423 56.4995 34.7031 55.3778 35.9183 54.5907C37.1335 53.8035 38.5512 53.3846 39.9999 53.3846C41.4486 53.3846 42.8663 53.8035 44.0816 54.5907C45.2968 55.3778 46.2575 56.4995 46.8476 57.8201C47.4377 59.1408 47.6319 60.6038 47.4066 62.0322C47.2984 62.7187 47.0955 63.383 46.8065 64.0074C46.4436 64.7912 46.9548 65.8691 47.8199 65.8691L64.9928 65.8691C65.545 65.8691 65.9925 65.4224 65.9925 64.8713L65.9925 47.7302C65.9925 46.8668 67.0725 46.3565 67.8578 46.7187C68.4833 47.0071 69.1489 47.2097 69.8366 47.3177C71.2677 47.5425 72.7334 47.3488 74.0565 46.7598C75.3796 46.1708 76.5034 45.2118 77.292 43.9988C78.0806 42.7859 78.5003 41.3708 78.5003 39.9248C78.5003 38.4788 78.0806 37.0637 77.292 35.8507C76.5034 34.6377 75.3796 33.6788 74.0565 33.0898C72.7334 32.5008 71.2677 32.307 69.8366 32.5318C69.1489 32.6399 68.4833 32.8424 67.8578 33.1309C67.0725 33.493 65.9925 32.9828 65.9925 32.1194L65.9925 14.9783C65.9925 14.4272 65.545 13.9804 64.9928 13.9804L47.8199 13.9804C46.9548 13.9804 46.4436 12.9025 46.8065 12.1187C47.0003 11.7 47.1556 11.2629 47.2695 10.8125C47.5674 9.63527 47.5738 8.40333 47.2883 7.22301C47.0027 6.0427 46.4337 4.94946 45.6303 4.03765C44.827 3.12583 43.8135 2.4228 42.6771 1.98924C41.5408 1.55568 40.3159 1.40459 39.108 1.54902C37.9002 1.69346 36.7456 2.12906 35.7441 2.81827C34.7425 3.50748 33.9241 4.42959 33.3592 5.50502C32.7944 6.58045 32.5002 7.77689 32.5021 8.99113Z" fill="#FF53AF"/>
<path fill-rule="evenodd" clip-rule="evenodd" d="M1.45 44.8149C0.503645 43.3593 -1.11902e-06 41.6613 -1.19456e-06 39.926C-1.2701e-06 38.1908 0.503645 36.4927 1.45 35.0372C2.39637 33.5816 3.74492 32.4309 5.3326 31.7241C6.92026 31.0173 8.6791 30.7847 10.3964 31.0545C11.1259 31.1691 11.8347 31.3723 12.5078 31.657L12.5078 14.9795C12.5078 13.6018 13.6268 12.4849 15.0071 12.4849L31.7129 12.4849C31.2478 11.3894 31.0024 10.2031 31.0026 8.99331C31.0006 7.53667 31.3536 6.10142 32.0312 4.81131C32.709 3.52081 33.6911 2.41427 34.893 1.58722C36.0949 0.760161 37.4803 0.237433 38.9297 0.0641157C40.3792 -0.109209 41.8491 0.0721036 43.2127 0.592375C44.5762 1.11265 45.7925 1.95628 46.7565 3.05047C47.7205 4.14466 48.4033 5.45653 48.746 6.8729C49.0887 8.28927 49.081 9.7676 48.7235 11.1803C48.6104 11.6272 48.4634 12.0632 48.2844 12.4849L64.9929 12.4849C66.3732 12.4849 67.4922 13.6018 67.4922 14.9795L67.4922 31.657C68.1653 31.3723 68.8741 31.1691 69.6036 31.0545C71.3209 30.7847 73.0797 31.0173 74.6674 31.7241C76.2551 32.4309 77.6036 33.5816 78.55 35.0372C79.4964 36.4927 80 38.1908 80 39.926C80 41.6613 79.4964 43.3593 78.55 44.8149C77.6036 46.2705 76.2551 47.4212 74.6674 48.128C73.0797 48.8348 71.3209 49.0674 69.6036 48.7976C68.8741 48.6829 68.1653 48.4798 67.4922 48.1951L67.4922 64.8725C67.4922 66.2503 66.3732 67.3672 64.9929 67.3672L47.8199 67.3672C46.6953 67.3672 45.9026 66.6571 45.5211 65.9216C45.1457 65.1978 45.0453 64.2449 45.4452 63.3809C45.6764 62.8814 45.8387 62.3499 45.9253 61.8007C46.1055 60.658 45.9502 59.4876 45.4782 58.4311C45.0061 57.3746 44.2375 56.4772 43.2653 55.8475C42.2931 55.2177 41.159 54.8826 40 54.8826C38.841 54.8826 37.7069 55.2177 36.7347 55.8475C35.7625 56.4772 34.9939 57.3746 34.5218 58.4311C34.0498 59.4876 33.8945 60.658 34.0747 61.8007C34.1613 62.3499 34.3236 62.8814 34.5548 63.3809C34.9547 64.2449 34.8543 65.1978 34.4789 65.9215C34.0974 66.6571 33.3047 67.3672 32.1801 67.3672L15.0071 67.3672C13.6268 67.3672 12.5078 66.2503 12.5078 64.8725L12.5078 48.1951C11.8347 48.4798 11.1259 48.6829 10.3964 48.7976C8.67915 49.0674 6.9203 48.8348 5.3326 48.128C3.74491 47.4212 2.39636 46.2705 1.45 44.8149ZM31.0026 8.99331C31.0026 8.99286 31.0026 8.99242 31.0026 8.99197L32.5021 8.99238L31.0026 8.99465C31.0026 8.9942 31.0026 8.99375 31.0026 8.99331ZM2.99915 39.926C2.99915 41.0828 3.33491 42.2149 3.96582 43.1853C4.59672 44.1557 5.49575 44.9228 6.55422 45.394C7.61268 45.8652 8.78525 46.0203 9.93012 45.8404C10.4803 45.7539 11.0128 45.5919 11.5132 45.3612C12.3789 44.9619 13.3335 45.0622 14.0586 45.4369C14.7956 45.8176 15.507 46.6089 15.507 47.7315L15.507 64.3736L31.7156 64.3736C31.4304 63.7017 31.2268 62.9943 31.112 62.2662C30.8417 60.5521 31.0747 58.7965 31.7828 57.2117C32.4909 55.627 33.6438 54.2809 35.102 53.3363C36.5603 52.3917 38.2615 51.889 40 51.889C41.7385 51.889 43.4397 52.3917 44.898 53.3363C46.3562 54.2809 47.5091 55.627 48.2172 57.2117C48.9253 58.7965 49.1583 60.5521 48.888 62.2662C48.7732 62.9943 48.5696 63.7017 48.2844 64.3736L64.493 64.3736L64.493 47.7315C64.493 46.6089 65.2044 45.8176 65.9414 45.4369C66.6665 45.0622 67.6211 44.9619 68.4868 45.3612C68.9872 45.5919 69.5197 45.7539 70.0699 45.8404C71.2148 46.0202 72.3873 45.8652 73.4458 45.394C74.5042 44.9228 75.4033 44.1557 76.0342 43.1853C76.6651 42.2149 77.0009 41.0828 77.0009 39.926C77.0009 38.7692 76.6651 37.6372 76.0342 36.6668C75.4033 35.6964 74.5043 34.9293 73.4458 34.4581C72.3873 33.9869 71.2147 33.8318 70.0699 34.0117C69.5197 34.0981 68.9872 34.2601 68.4868 34.4909C67.6211 34.8901 66.6665 34.7899 65.9414 34.4152C65.2044 34.0344 64.493 33.2431 64.493 32.1206L64.493 15.4785L47.8199 15.4785C46.6953 15.4785 45.9026 14.7684 45.5211 14.0328C45.1457 13.3091 45.0453 12.3562 45.4452 11.4922C45.6003 11.1572 45.7245 10.8075 45.8157 10.4473C46.054 9.50545 46.0591 8.51989 45.8307 7.57563C45.6022 6.63138 45.147 5.75679 44.5043 5.02734C43.8617 4.29788 43.0508 3.73547 42.1418 3.38862C41.2327 3.04177 40.2528 2.92089 39.2865 3.03644C38.3202 3.15199 37.3965 3.50048 36.5953 4.05184C35.7941 4.6032 35.1393 5.34088 34.6874 6.20124C34.2356 7.06158 34.0002 8.01874 34.0017 8.99013L34.0017 8.9928C34.0015 9.86184 34.1917 10.7127 34.5507 11.4891C34.9505 12.3535 34.8498 13.3068 34.4747 14.0308C34.0936 14.7665 33.3008 15.4785 32.1746 15.4785L15.5069 15.4785L15.5069 32.1206C15.5069 33.2432 14.7956 34.0344 14.0586 34.4152C13.3335 34.7899 12.3788 34.8901 11.5132 34.4909C11.0128 34.2601 10.4803 34.0981 9.93012 34.0117C8.78529 33.8318 7.61272 33.9869 6.55422 34.4581C5.49574 34.9293 4.59671 35.6964 3.96582 36.6668C3.33491 37.6372 2.99915 38.7692 2.99915 39.926Z" fill="black"/>
<path d="M32.5021 60.6249C32.5018 61.7125 32.7398 62.7774 33.1891 63.7489C33.552 64.5337 33.0404 65.6142 32.1746 65.6142L15.007 65.6142C14.4549 65.6142 14.0073 66.061 14.0073 66.6121L14.0073 83.7532C14.0073 84.6166 12.9274 85.1268 12.1421 84.7647C11.5166 84.4762 10.851 84.2737 10.1632 84.1656C8.73213 83.9408 7.26643 84.1346 5.94335 84.7236C4.62027 85.3126 3.49648 86.2715 2.70785 87.4845C1.91921 88.6975 1.49951 90.1126 1.49951 91.5586C1.49951 93.0046 1.91921 94.4197 2.70785 95.6326C3.49648 96.8456 4.62027 97.8046 5.94335 98.3936C7.26643 98.9825 8.73213 99.1763 10.1632 98.9515C10.851 98.8435 11.5166 98.6409 12.1421 98.3525C12.9274 97.9903 14.0073 98.5006 14.0073 99.364L14.0073 116.505C14.0073 117.056 14.4549 117.503 15.007 117.503L32.18 117.503C33.045 117.503 33.5562 116.425 33.1934 115.641C32.9044 115.017 32.7015 114.352 32.5933 113.666C32.368 112.238 32.5621 110.775 33.1522 109.454C33.7423 108.133 34.7031 107.012 35.9183 106.224C37.1335 105.437 38.5512 105.018 39.9999 105.018C41.4486 105.018 42.8663 105.437 44.0816 106.224C45.2968 107.012 46.2575 108.133 46.8476 109.454C47.4377 110.775 47.6319 112.238 47.4066 113.666C47.2984 114.352 47.0955 115.017 46.8065 115.641C46.4436 116.425 46.9548 117.503 47.8199 117.503L64.9928 117.503C65.545 117.503 65.9925 117.056 65.9925 116.505L65.9925 99.364C65.9925 98.5006 67.0725 97.9903 67.8578 98.3525C68.4833 98.6409 69.1489 98.8434 69.8366 98.9515C71.2677 99.1763 72.7334 98.9825 74.0565 98.3936C75.3796 97.8046 76.5034 96.8456 77.292 95.6326C78.0806 94.4196 78.5003 93.0046 78.5003 91.5586C78.5003 90.1126 78.0806 88.6975 77.292 87.4845C76.5034 86.2715 75.3796 85.3126 74.0565 84.7236C72.7334 84.1346 71.2677 83.9408 69.8366 84.1656C69.1489 84.2737 68.4833 84.4762 67.8578 84.7647C67.0725 85.1268 65.9925 84.6166 65.9925 83.7532L65.9925 66.6121C65.9925 66.061 65.545 65.6142 64.9928 65.6142L47.8199 65.6142C46.9548 65.6142 46.4436 64.5363 46.8065 63.7525C47.0003 63.3338 47.1556 62.8966 47.2695 62.4463C47.5674 61.2691 47.5738 60.0371 47.2883 58.8568C47.0027 57.6765 46.4337 56.5833 45.6303 55.6714C44.827 54.7596 43.8135 54.0566 42.6771 53.623C41.5408 53.1895 40.3159 53.0384 39.108 53.1828C37.9002 53.3273 36.7456 53.7629 35.7441 54.4521C34.7425 55.1413 33.9241 56.0634 33.3592 57.1388C32.7944 58.2142 32.5002 59.4107 32.5021 60.6249Z" fill="#BEFFCC"/>
<path fill-rule="evenodd" clip-rule="evenodd" d="M1.45 96.4477C0.503645 94.9921 -1.11902e-06 93.2941 -1.19456e-06 91.5589C-1.2701e-06 89.8236 0.503645 88.1256 1.45 86.67C2.39637 85.2144 3.74492 84.0637 5.3326 83.3569C6.92026 82.6501 8.6791 82.4175 10.3964 82.6873C11.1259 82.8019 11.8347 83.0051 12.5078 83.2898L12.5078 66.6124C12.5078 65.2346 13.6268 64.1177 15.0071 64.1177L31.7129 64.1177C31.2478 63.0223 31.0024 61.8359 31.0026 60.6261C31.0006 59.1695 31.3536 57.7342 32.0312 56.4441C32.709 55.1536 33.6911 54.0471 34.893 53.22C36.0949 52.393 37.4803 51.8702 38.9297 51.6969C40.3792 51.5236 41.8491 51.7049 43.2127 52.2252C44.5762 52.7455 45.7925 53.5891 46.7565 54.6833C47.7205 55.7775 48.4033 57.0893 48.746 58.5057C49.0887 59.9221 49.081 61.4004 48.7235 62.8131C48.6104 63.26 48.4634 63.696 48.2844 64.1177L64.9929 64.1177C66.3732 64.1177 67.4922 65.2346 67.4922 66.6124L67.4922 83.2898C68.1653 83.0051 68.8741 82.8019 69.6036 82.6873C71.3209 82.4175 73.0797 82.6501 74.6674 83.3569C76.2551 84.0637 77.6036 85.2144 78.55 86.67C79.4964 88.1256 80 89.8236 80 91.5589C80 93.2941 79.4964 94.9921 78.55 96.4477C77.6036 97.9033 76.2551 99.054 74.6674 99.7608C73.0797 100.468 71.3209 100.7 69.6036 100.43C68.8741 100.316 68.1653 100.113 67.4922 99.8279L67.4922 116.505C67.4922 117.883 66.3732 119 64.9929 119L47.8199 119C46.6953 119 45.9026 118.29 45.5211 117.554C45.1457 116.831 45.0453 115.878 45.4452 115.014C45.6764 114.514 45.8387 113.983 45.9253 113.434C46.1055 112.291 45.9502 111.12 45.4782 110.064C45.0061 109.007 44.2375 108.11 43.2653 107.48C42.2931 106.851 41.159 106.515 40 106.515C38.841 106.515 37.7069 106.851 36.7347 107.48C35.7625 108.11 34.9939 109.007 34.5218 110.064C34.0498 111.12 33.8945 112.291 34.0747 113.434C34.1613 113.983 34.3236 114.514 34.5548 115.014C34.9547 115.878 34.8543 116.831 34.4789 117.554C34.0974 118.29 33.3047 119 32.1801 119L15.0071 119C13.6268 119 12.5078 117.883 12.5078 116.505L12.5078 99.8279C11.8347 100.113 11.1259 100.316 10.3964 100.43C8.67915 100.7 6.9203 100.468 5.3326 99.7608C3.74491 99.054 2.39636 97.9033 1.45 96.4477ZM31.0026 60.6261C31.0026 60.6257 31.0026 60.6252 31.0026 60.6248L32.5021 60.6252L31.0026 60.6275C31.0026 60.627 31.0026 60.6266 31.0026 60.6261ZM2.99915 91.5589C2.99915 92.7157 3.33491 93.8477 3.96582 94.8181C4.59672 95.7885 5.49575 96.5556 6.55422 97.0268C7.61268 97.498 8.78525 97.6531 9.93012 97.4732C10.4803 97.3868 11.0128 97.2247 11.5132 96.994C12.3789 96.5948 13.3335 96.695 14.0586 97.0697C14.7956 97.4505 15.507 98.2417 15.507 99.3643L15.507 116.006L31.7156 116.006C31.4304 115.335 31.2268 114.627 31.112 113.899C30.8417 112.185 31.0747 110.429 31.7828 108.845C32.4909 107.26 33.6438 105.914 35.102 104.969C36.5603 104.025 38.2615 103.522 40 103.522C41.7385 103.522 43.4397 104.025 44.898 104.969C46.3562 105.914 47.5091 107.26 48.2172 108.845C48.9253 110.429 49.1583 112.185 48.888 113.899C48.7732 114.627 48.5696 115.335 48.2844 116.006L64.493 116.006L64.493 99.3643C64.493 98.2417 65.2044 97.4505 65.9414 97.0697C66.6665 96.695 67.6211 96.5948 68.4868 96.994C68.9872 97.2247 69.5197 97.3868 70.0699 97.4732C71.2148 97.6531 72.3873 97.498 73.4458 97.0268C74.5042 96.5556 75.4033 95.7885 76.0342 94.8181C76.6651 93.8477 77.0009 92.7157 77.0009 91.5589C77.0009 90.402 76.6651 89.27 76.0342 88.2996C75.4033 87.3292 74.5043 86.5621 73.4458 86.0909C72.3873 85.6197 71.2147 85.4646 70.0699 85.6445C69.5197 85.7309 68.9872 85.8929 68.4868 86.1237C67.6211 86.5229 66.6665 86.4227 65.9414 86.048C65.2044 85.6672 64.493 84.876 64.493 83.7534L64.493 67.1113L47.8199 67.1113C46.6953 67.1113 45.9026 66.4012 45.5211 65.6657C45.1457 64.9419 45.0453 63.989 45.4452 63.125C45.6003 62.79 45.7245 62.4403 45.8157 62.0801C46.054 61.1383 46.0591 60.1527 45.8307 59.2084C45.6022 58.2642 45.147 57.3896 44.5043 56.6602C43.8617 55.9307 43.0508 55.3683 42.1418 55.0214C41.2327 54.6746 40.2528 54.5537 39.2865 54.6692C38.3202 54.7848 37.3965 55.1333 36.5953 55.6846C35.7941 56.236 35.1393 56.9737 34.6874 57.834C34.2356 58.6944 34.0002 59.6516 34.0017 60.6229L34.0017 60.6256C34.0015 61.4947 34.1917 62.3455 34.5507 63.1219C34.9505 63.9864 34.8498 64.9397 34.4747 65.6636C34.0936 66.3993 33.3008 67.1113 32.1746 67.1113L15.5069 67.1113L15.5069 83.7534C15.5069 84.876 14.7956 85.6673 14.0586 86.048C13.3335 86.4227 12.3788 86.5229 11.5132 86.1237C11.0128 85.8929 10.4803 85.7309 9.93012 85.6445C8.78529 85.4646 7.61272 85.6197 6.55422 86.0909C5.49574 86.5621 4.59671 87.3292 3.96582 88.2996C3.33491 89.27 2.99915 90.4021 2.99915 91.5589Z" fill="black"/>
<path d="M38.4889 39.1587C38.4889 43.5675 36.2509 47.1415 33.4903 47.1415C30.7296 47.1415 28.4917 43.5675 28.4917 39.1587C28.4917 34.7498 30.7296 31.1758 33.4903 31.1758C36.2509 31.1758 38.4889 34.7498 38.4889 39.1587Z" fill="white"/>
<path fill-rule="evenodd" clip-rule="evenodd" d="M34.9054 43.4812C35.5248 42.4921 35.9896 40.9703 35.9896 39.1587C35.9896 37.347 35.5248 35.8252 34.9054 34.8361C34.264 33.8118 33.6979 33.6704 33.4903 33.6704C33.2826 33.6704 32.7165 33.8118 32.0751 34.8361C31.4558 35.8252 30.991 37.347 30.991 39.1587C30.991 40.9703 31.4558 42.4921 32.0751 43.4812C32.7165 44.5056 33.2826 44.6469 33.4903 44.6469C33.6979 44.6469 34.264 44.5056 34.9054 43.4812ZM33.4903 47.1415C36.2509 47.1415 38.4889 43.5675 38.4889 39.1587C38.4889 34.7498 36.2509 31.1758 33.4903 31.1758C30.7296 31.1758 28.4917 34.7498 28.4917 39.1587C28.4917 43.5675 30.7296 47.1415 33.4903 47.1415Z" fill="black"/>
<path d="M38.4889 91.7905C38.4889 96.1993 36.2509 99.7734 33.4903 99.7734C30.7296 99.7734 28.4917 96.1993 28.4917 91.7905C28.4917 87.3817 30.7296 83.8076 33.4903 83.8076C36.2509 83.8076 38.4889 87.3817 38.4889 91.7905Z" fill="white"/>
<path fill-rule="evenodd" clip-rule="evenodd" d="M34.9054 95.116C35.5248 94.1268 35.9896 92.6051 35.9896 90.7934C35.9896 88.9818 35.5248 87.46 34.9054 86.4708C34.264 85.4465 33.6979 85.3052 33.4903 85.3052C33.2826 85.3052 32.7165 85.4465 32.0751 86.4708C31.4558 87.46 30.991 88.9818 30.991 90.7934C30.991 92.6051 31.4558 94.1268 32.0751 95.116C32.7165 96.1403 33.2826 96.2817 33.4903 96.2817C33.6979 96.2817 34.264 96.1403 34.9054 95.116ZM33.4903 98.7763C36.2509 98.7763 38.4889 95.2022 38.4889 90.7934C38.4889 86.3846 36.2509 82.8105 33.4903 82.8105C30.7296 82.8105 28.4917 86.3846 28.4917 90.7934C28.4917 95.2022 30.7296 98.7763 33.4903 98.7763Z" fill="black"/>
<path d="M31.9909 39.1588C31.9909 40.261 32.5504 41.1545 33.2406 41.1545C33.9307 41.1545 34.4902 40.261 34.4902 39.1588C34.4902 38.0566 33.9307 37.1631 33.2406 37.1631C32.5504 37.1631 31.9909 38.0566 31.9909 39.1588Z" fill="black"/>
<path d="M31.9909 90.7926C31.9909 91.8948 32.5504 92.7883 33.2406 92.7883C33.9307 92.7883 34.4902 91.8948 34.4902 90.7926C34.4902 89.6904 33.9307 88.7969 33.2406 88.7969C32.5504 88.7969 31.9909 89.6904 31.9909 90.7926Z" fill="black"/>
<path d="M52.485 39.1587C52.485 43.5675 50.247 47.1415 47.4864 47.1415C44.7257 47.1415 42.4878 43.5675 42.4878 39.1587C42.4878 34.7498 44.7257 31.1758 47.4864 31.1758C50.247 31.1758 52.485 34.7498 52.485 39.1587Z" fill="white"/>
<path fill-rule="evenodd" clip-rule="evenodd" d="M48.9015 43.4812C49.5209 42.4921 49.9857 40.9703 49.9857 39.1587C49.9857 37.347 49.5209 35.8252 48.9015 34.8361C48.2601 33.8118 47.694 33.6704 47.4864 33.6704C47.2787 33.6704 46.7126 33.8118 46.0712 34.8361C45.4519 35.8252 44.9871 37.347 44.9871 39.1587C44.9871 40.9703 45.4519 42.4921 46.0712 43.4812C46.7126 44.5056 47.2787 44.6469 47.4864 44.6469C47.694 44.6469 48.2601 44.5056 48.9015 43.4812ZM47.4864 47.1415C50.247 47.1415 52.485 43.5675 52.485 39.1587C52.485 34.7498 50.247 31.1758 47.4864 31.1758C44.7257 31.1758 42.4878 34.7498 42.4878 39.1587C42.4878 43.5675 44.7257 47.1415 47.4864 47.1415Z" fill="black"/>
<path d="M52.485 91.7905C52.485 96.1993 50.247 99.7734 47.4864 99.7734C44.7257 99.7734 42.4878 96.1993 42.4878 91.7905C42.4878 87.3817 44.7257 83.8076 47.4864 83.8076C50.247 83.8076 52.485 87.3817 52.485 91.7905Z" fill="white"/>
<path fill-rule="evenodd" clip-rule="evenodd" d="M48.9015 95.116C49.5209 94.1268 49.9857 92.6051 49.9857 90.7934C49.9857 88.9818 49.5209 87.46 48.9015 86.4708C48.2601 85.4465 47.694 85.3052 47.4864 85.3052C47.2787 85.3052 46.7126 85.4465 46.0712 86.4708C45.4519 87.46 44.9871 88.9818 44.9871 90.7934C44.9871 92.6051 45.4519 94.1268 46.0712 95.116C46.7126 96.1403 47.2787 96.2817 47.4864 96.2817C47.694 96.2817 48.2601 96.1403 48.9015 95.116ZM47.4864 98.7763C50.247 98.7763 52.485 95.2022 52.485 90.7934C52.485 86.3846 50.247 82.8105 47.4864 82.8105C44.7257 82.8105 42.4878 86.3846 42.4878 90.7934C42.4878 95.2022 44.7257 98.7763 47.4864 98.7763Z" fill="black"/>
<path d="M45.987 39.1588C45.987 40.261 46.5465 41.1545 47.2367 41.1545C47.9268 41.1545 48.4863 40.261 48.4863 39.1588C48.4863 38.0566 47.9268 37.1631 47.2367 37.1631C46.5465 37.1631 45.987 38.0566 45.987 39.1588Z" fill="black"/>
<path d="M45.987 90.7926C45.987 91.8948 46.5465 92.7883 47.2367 92.7883C47.9268 92.7883 48.4863 91.8948 48.4863 90.7926C48.4863 89.6904 47.9268 88.7969 47.2367 88.7969C46.5465 88.7969 45.987 89.6904 45.987 90.7926Z" fill="black"/>
<path d="M15.4492 134.883H12.6172V137.031H5.89844V139.219H22.2461V137.031H15.4492V134.883ZM6.67969 133.828L7.69531 135.977C10.7715 135.586 12.8809 134.434 14.0039 132.832C15.127 134.453 17.2656 135.586 20.3906 135.977L21.3672 133.828C17.0312 133.359 15.4688 131.572 15.4688 129.688V129.16H12.5977V129.688C12.5977 131.465 10.9473 133.34 6.67969 133.828ZM7.75391 146.68H20.3125V139.961H17.4805V141.172H10.5273V139.961H7.75391V146.68ZM10.5273 144.492V143.281H17.4805V144.492H10.5273Z" fill="black"/>
<path d="M37.4609 128.945H34.6484V137.852H37.4609V134.59H39.7852V132.285H37.4609V128.945ZM23.6523 137.266H32.3438V129.727H23.6523V137.266ZM25.4297 140.664H34.6484V141.562H25.4492V146.68H37.9297V144.492H28.2227V143.574H37.4609V138.516H25.4297V140.664ZM26.4258 135.059V131.953H29.5703V135.059H26.4258Z" fill="black"/>
<path d="M55.5273 128.945H52.7148V140.84H55.5273V128.945ZM40.7031 134.434C40.6934 137.031 42.8418 138.877 45.6641 138.887C48.4766 138.877 50.625 137.031 50.625 134.434C50.625 131.865 48.4766 130.029 45.6641 130.02C42.8418 130.029 40.6934 131.865 40.7031 134.434ZM42.2852 144.609L43.3789 146.816C46.2793 146.367 48.2617 145.137 49.3262 143.496C50.3809 145.137 52.3633 146.367 55.293 146.816L56.4062 144.609C52.3633 144.062 50.791 142.1 50.8008 140.293V139.98H47.8711V140.293C47.8711 142.1 46.3086 144.082 42.2852 144.609ZM43.4375 134.434C43.4375 133.115 44.3652 132.412 45.6641 132.422C46.9238 132.412 47.8418 133.115 47.832 134.434C47.8418 135.762 46.9238 136.504 45.6641 136.504C44.3652 136.504 43.4375 135.762 43.4375 134.434Z" fill="black"/>
<path d="M72.8906 128.945H70.0391V146.875H72.8906V128.945ZM57.7539 141.66L59.2188 143.887C65.7422 140.83 67.4902 136.328 67.5 130.801H58.7695V132.988H64.6289C64.2285 136.855 62.3145 139.512 57.7539 141.66Z" fill="black"/>
</svg>
