<svg width="32" height="30" viewBox="0 0 32 30" fill="none" xmlns="http://www.w3.org/2000/svg">
<path d="M16 30C16 30 0 20.4546 0 8.86365C0.000325679 6.81501 0.666645 4.82973 1.88567 3.24532C3.1047 1.66092 4.80119 0.5752 6.6867 0.172754C8.57222 -0.229692 10.5304 0.0759786 12.2282 1.0378C13.9261 1.99961 15.2589 3.55821 16 5.44859C16.7411 3.55821 18.0739 1.99962 19.7717 1.0378C21.4696 0.0759824 23.4278 -0.22969 25.3133 0.172754C27.1988 0.575198 28.8953 1.66092 30.1143 3.24532C31.3334 4.82972 31.9997 6.81501 32 8.86365C32 20.4546 16 30 16 30Z" fill="#FF0000"/>
</svg>
