<svg width="34" height="32" viewBox="0 0 34 32" fill="none" xmlns="http://www.w3.org/2000/svg">
<path d="M17 31C17 31 1 21.4545 1 9.86365C1.00033 7.81501 1.66664 5.82973 2.88567 4.24532C4.1047 2.66092 5.80119 1.5752 7.6867 1.17275C9.57222 0.770308 11.5304 1.07598 13.2282 2.0378C14.9261 2.99961 16.2589 4.55821 17 6.44859C17.7411 4.55821 19.0739 2.99962 20.7717 2.0378C22.4696 1.07598 24.4278 0.77031 26.3133 1.17275C28.1988 1.5752 29.8953 2.66092 31.1143 4.24532C32.3334 5.82973 32.9997 7.81501 33 9.86365C33 21.4545 17 31 17 31Z" stroke="#999999" stroke-linecap="round" stroke-linejoin="round"/>
</svg>
